<svg xmlns="http://www.w3.org/2000/svg" xmlns:xlink="http://www.w3.org/1999/xlink" width="50" zoomAndPan="magnify" viewBox="0 0 37.5 37.499999" height="50" preserveAspectRatio="xMidYMid meet" version="1.0"><defs><g/><clipPath id="7d13ee67ff"><path d="M 0 0 L 37.007812 0 L 37.007812 37.007812 L 0 37.007812 Z M 0 0 " clip-rule="nonzero"/></clipPath><clipPath id="3ade91a458"><path d="M 6.402344 9 L 17 9 L 17 23 L 6.402344 23 Z M 6.402344 9 " clip-rule="nonzero"/></clipPath><clipPath id="1bc38ad8bc"><path d="M 16 16 L 27 16 L 27 30.09375 L 16 30.09375 Z M 16 16 " clip-rule="nonzero"/></clipPath><clipPath id="a547fb6a53"><path d="M 19 5.34375 L 31.152344 5.34375 L 31.152344 16 L 19 16 Z M 19 5.34375 " clip-rule="nonzero"/></clipPath></defs><g clip-path="url(#7d13ee67ff)"><path fill="#ffffff" d="M 0 0 L 37.5 0 L 37.5 37.5 L 0 37.5 Z M 0 0 " fill-opacity="1" fill-rule="nonzero"/><path fill="#ffffff" d="M 0 0 L 37.5 0 L 37.5 37.5 L 0 37.5 Z M 0 0 " fill-opacity="1" fill-rule="nonzero"/></g><g clip-path="url(#3ade91a458)"><path fill="#f7931a" d="M 10.207031 19.054688 L 9.933594 19.40625 C 9.667969 19.753906 9.527344 20.164062 9.527344 20.597656 C 9.527344 21.671875 10.390625 22.542969 11.449219 22.542969 C 12.507812 22.542969 13.371094 21.671875 13.371094 20.597656 C 13.371094 20.164062 13.230469 19.753906 12.964844 19.40625 L 12.699219 19.0625 L 13.132812 19.058594 C 13.847656 19.046875 14.570312 19.050781 15.273438 19.054688 C 15.539062 19.054688 15.808594 19.054688 16.074219 19.054688 L 16.074219 16.835938 C 14.902344 17.144531 13.960938 16.820312 13.273438 15.878906 C 12.625 14.988281 12.582031 13.992188 13.152344 13.066406 C 13.816406 11.992188 14.820312 11.597656 16.066406 11.917969 L 16.066406 9.699219 L 7.34375 9.699219 C 6.902344 9.699219 6.824219 9.773438 6.824219 10.210938 L 6.824219 19.058594 L 7.140625 19.0625 C 8.015625 19.0625 8.890625 19.0625 9.765625 19.058594 Z M 11.449219 22.976562 C 10.152344 22.976562 9.097656 21.910156 9.097656 20.597656 C 9.097656 20.207031 9.191406 19.832031 9.371094 19.492188 C 8.628906 19.496094 7.886719 19.496094 7.140625 19.496094 L 6.792969 19.492188 C 6.75 19.492188 6.710938 19.488281 6.65625 19.484375 C 6.636719 19.480469 6.617188 19.476562 6.589844 19.476562 L 6.398438 19.457031 L 6.398438 10.210938 C 6.398438 9.53125 6.664062 9.265625 7.34375 9.265625 L 16.492188 9.265625 L 16.492188 12.503906 L 16.214844 12.410156 C 15.027344 12.019531 14.121094 12.320312 13.515625 13.296875 C 13.035156 14.070312 13.070312 14.875 13.617188 15.621094 C 14.246094 16.484375 15.097656 16.71875 16.222656 16.339844 L 16.503906 16.246094 L 16.503906 19.441406 L 16.316406 19.464844 C 16.296875 19.464844 16.277344 19.46875 16.257812 19.472656 C 16.207031 19.480469 16.152344 19.488281 16.089844 19.488281 C 15.816406 19.488281 15.542969 19.488281 15.273438 19.488281 C 14.699219 19.484375 14.109375 19.484375 13.527344 19.488281 C 13.707031 19.828125 13.800781 20.207031 13.800781 20.597656 C 13.800781 21.910156 12.746094 22.976562 11.449219 22.976562 " fill-opacity="1" fill-rule="nonzero"/></g><g clip-path="url(#1bc38ad8bc)"><path fill="#f7931a" d="M 17.296875 29.632812 C 17.308594 29.632812 17.324219 29.632812 17.335938 29.632812 C 20.238281 29.632812 23.136719 29.632812 26.039062 29.632812 C 26.457031 29.632812 26.53125 29.554688 26.53125 29.125 L 26.53125 20.253906 L 25.9375 20.253906 C 25.148438 20.253906 24.402344 20.253906 23.644531 20.257812 L 23.195312 20.261719 L 23.472656 19.90625 C 23.746094 19.5625 23.890625 19.144531 23.890625 18.703125 C 23.890625 17.628906 23.027344 16.757812 21.96875 16.757812 C 20.910156 16.757812 20.046875 17.628906 20.046875 18.703125 C 20.046875 19.144531 20.191406 19.5625 20.464844 19.910156 L 20.765625 20.289062 L 20.242188 20.257812 C 20.226562 20.253906 20.210938 20.253906 20.195312 20.253906 L 17.289062 20.253906 L 17.289062 22.480469 C 18.453125 22.171875 19.421875 22.507812 20.109375 23.457031 C 20.742188 24.339844 20.78125 25.328125 20.222656 26.246094 C 19.554688 27.332031 18.546875 27.730469 17.296875 27.402344 Z M 22.234375 30.066406 C 20.601562 30.066406 18.96875 30.066406 17.335938 30.066406 C 17.28125 30.066406 17.222656 30.0625 17.164062 30.058594 L 16.867188 30.046875 L 16.867188 26.808594 L 17.148438 26.90625 C 18.339844 27.308594 19.25 27.007812 19.855469 26.015625 C 20.328125 25.25 20.292969 24.453125 19.761719 23.714844 C 19.125 22.828125 18.269531 22.589844 17.140625 22.980469 L 16.859375 23.078125 L 16.859375 19.820312 L 19.894531 19.820312 C 19.710938 19.476562 19.617188 19.097656 19.617188 18.703125 C 19.617188 17.390625 20.671875 16.324219 21.96875 16.324219 C 23.265625 16.324219 24.320312 17.390625 24.320312 18.703125 C 24.320312 19.097656 24.222656 19.480469 24.039062 19.824219 C 24.664062 19.820312 25.289062 19.820312 25.9375 19.820312 L 26.957031 19.820312 L 26.957031 29.125 C 26.957031 29.792969 26.691406 30.066406 26.039062 30.066406 C 24.769531 30.066406 23.5 30.066406 22.234375 30.066406 " fill-opacity="1" fill-rule="nonzero"/></g><g clip-path="url(#a547fb6a53)"><path fill="#f7931a" d="M 26.734375 14.605469 L 28.070312 15.140625 C 28.078125 15.121094 28.085938 15.101562 28.09375 15.082031 C 28.914062 13 29.734375 10.917969 30.550781 8.839844 C 30.65625 8.566406 30.652344 8.554688 30.378906 8.445312 C 29.125 7.9375 27.867188 7.433594 26.613281 6.929688 L 24.144531 5.933594 C 24.117188 6 24.09375 6.0625 24.066406 6.125 L 23.878906 6.605469 C 23.78125 6.851562 23.683594 7.101562 23.585938 7.351562 L 23.46875 7.648438 L 23.238281 7.425781 C 22.878906 7.074219 22.40625 6.882812 21.910156 6.882812 C 20.847656 6.882812 19.988281 7.753906 19.988281 8.828125 C 19.988281 9.898438 20.847656 10.769531 21.910156 10.769531 C 21.910156 10.769531 21.917969 10.769531 21.925781 10.769531 L 22.242188 10.769531 L 21.554688 12.523438 L 22.894531 13.058594 C 23.085938 12.109375 23.625 11.523438 24.503906 11.304688 C 25.355469 11.097656 26.117188 11.363281 26.640625 12.050781 C 27.246094 12.84375 27.277344 13.722656 26.734375 14.605469 Z M 28.300781 15.699219 L 26.070312 14.808594 L 26.238281 14.582031 C 26.824219 13.769531 26.847656 13.027344 26.300781 12.3125 C 25.878906 11.761719 25.292969 11.558594 24.605469 11.726562 C 23.824219 11.917969 23.390625 12.460938 23.277344 13.386719 L 23.246094 13.664062 L 21 12.765625 L 21.617188 11.1875 C 20.457031 11.042969 19.558594 10.039062 19.558594 8.828125 C 19.558594 7.515625 20.613281 6.449219 21.910156 6.449219 C 22.414062 6.449219 22.894531 6.613281 23.296875 6.910156 C 23.359375 6.753906 23.421875 6.601562 23.480469 6.445312 L 23.667969 5.960938 C 23.703125 5.878906 23.738281 5.792969 23.773438 5.703125 L 23.910156 5.375 L 26.773438 6.527344 C 28.027344 7.03125 29.28125 7.535156 30.535156 8.042969 C 31.035156 8.242188 31.144531 8.5 30.949219 9 C 30.132812 11.078125 29.3125 13.160156 28.492188 15.242188 C 28.472656 15.296875 28.449219 15.351562 28.421875 15.414062 L 28.300781 15.699219 " fill-opacity="1" fill-rule="nonzero"/></g><g fill="#f7931a" fill-opacity="1"><g transform="translate(6.96563, 32.916669)"><g><path d="M 0.160156 -0.992188 L 0.160156 -0.40625 C 0.160156 -0.171875 0.332031 0 0.566406 0 L 2.519531 0 L 2.519531 -0.230469 L 0.566406 -0.230469 C 0.46875 -0.230469 0.390625 -0.308594 0.390625 -0.40625 L 0.390625 -0.585938 L 2.519531 -0.585938 L 2.519531 -0.816406 L 0.390625 -0.816406 L 0.390625 -0.992188 C 0.390625 -1.09375 0.46875 -1.167969 0.566406 -1.167969 L 2.519531 -1.167969 L 2.519531 -1.398438 L 0.566406 -1.398438 C 0.332031 -1.398438 0.160156 -1.226562 0.160156 -0.992188 Z M 0.160156 -0.992188 "/></g></g></g><g fill="#f7931a" fill-opacity="1"><g transform="translate(9.64565, 32.916669)"><g><path d="M 0.160156 0 L 2.113281 0 C 2.347656 0 2.519531 -0.171875 2.519531 -0.40625 L 2.519531 -0.992188 C 2.519531 -1.226562 2.347656 -1.398438 2.113281 -1.398438 L 0.160156 -1.398438 Z M 0.390625 -0.230469 L 0.390625 -1.167969 L 2.113281 -1.167969 C 2.210938 -1.167969 2.289062 -1.09375 2.289062 -0.992188 L 2.289062 -0.40625 C 2.289062 -0.308594 2.210938 -0.230469 2.113281 -0.230469 Z M 0.390625 -0.230469 "/></g></g></g><g fill="#f7931a" fill-opacity="1"><g transform="translate(12.32567, 32.916669)"><g><path d="M 2.289062 -1.398438 L 2.289062 -0.40625 C 2.289062 -0.308594 2.210938 -0.230469 2.113281 -0.230469 L 0.566406 -0.230469 C 0.46875 -0.230469 0.390625 -0.308594 0.390625 -0.40625 L 0.390625 -1.398438 L 0.160156 -1.398438 L 0.160156 -0.40625 C 0.160156 -0.171875 0.332031 0 0.566406 0 L 2.113281 0 C 2.347656 0 2.519531 -0.171875 2.519531 -0.40625 L 2.519531 -1.398438 Z M 2.289062 -1.398438 "/></g></g></g><g fill="#f7931a" fill-opacity="1"><g transform="translate(15.00569, 32.916669)"><g><path d="M 0.390625 -0.40625 L 0.390625 -0.992188 C 0.390625 -1.09375 0.46875 -1.167969 0.566406 -1.167969 L 2.519531 -1.167969 L 2.519531 -1.398438 L 0.566406 -1.398438 C 0.332031 -1.398438 0.160156 -1.226562 0.160156 -0.992188 L 0.160156 -0.40625 C 0.160156 -0.171875 0.332031 0 0.566406 0 L 2.519531 0 L 2.519531 -0.230469 L 0.566406 -0.230469 C 0.46875 -0.230469 0.390625 -0.308594 0.390625 -0.40625 Z M 0.390625 -0.40625 "/></g></g></g><g fill="#f7931a" fill-opacity="1"><g transform="translate(17.68571, 32.916669)"><g><path d="M 2.289062 -0.992188 L 2.289062 -0.816406 L 0.390625 -0.816406 L 0.390625 -0.992188 C 0.390625 -1.09375 0.46875 -1.167969 0.566406 -1.167969 L 2.113281 -1.167969 C 2.210938 -1.167969 2.289062 -1.09375 2.289062 -0.992188 Z M 0.160156 0 L 0.390625 0 L 0.390625 -0.585938 L 2.289062 -0.585938 L 2.289062 0 L 2.519531 0 L 2.519531 -0.992188 C 2.519531 -1.226562 2.347656 -1.398438 2.113281 -1.398438 L 0.566406 -1.398438 C 0.332031 -1.398438 0.160156 -1.226562 0.160156 -0.992188 Z M 0.160156 0 "/></g></g></g><g fill="#f7931a" fill-opacity="1"><g transform="translate(20.36573, 32.916669)"><g><path d="M 0.390625 -0.40625 L 0.390625 -0.992188 C 0.390625 -1.09375 0.46875 -1.167969 0.566406 -1.167969 L 2.519531 -1.167969 L 2.519531 -1.398438 L 0.566406 -1.398438 C 0.332031 -1.398438 0.160156 -1.226562 0.160156 -0.992188 L 0.160156 -0.40625 C 0.160156 -0.171875 0.332031 0 0.566406 0 L 2.519531 0 L 2.519531 -0.230469 L 0.566406 -0.230469 C 0.46875 -0.230469 0.390625 -0.308594 0.390625 -0.40625 Z M 0.390625 -0.40625 "/></g></g></g><g fill="#f7931a" fill-opacity="1"><g transform="translate(23.04575, 32.916669)"><g><path d="M 0.160156 0 L 2.039062 0 L 2.039062 -0.230469 L 1.214844 -0.230469 L 1.214844 -1.167969 L 2.039062 -1.167969 L 2.039062 -1.398438 L 0.160156 -1.398438 L 0.160156 -1.167969 L 0.984375 -1.167969 L 0.984375 -0.230469 L 0.160156 -0.230469 Z M 0.160156 0 "/></g></g></g><g fill="#f7931a" fill-opacity="1"><g transform="translate(25.245766, 32.916669)"><g><path d="M 1.839844 -1.925781 L 0.839844 -1.863281 L 0.839844 -1.632812 L 1.839844 -1.691406 Z M 0.160156 -0.40625 C 0.160156 -0.171875 0.332031 0 0.566406 0 L 2.113281 0 C 2.347656 0 2.519531 -0.171875 2.519531 -0.40625 L 2.519531 -0.992188 C 2.519531 -1.226562 2.347656 -1.398438 2.113281 -1.398438 L 0.566406 -1.398438 C 0.332031 -1.398438 0.160156 -1.226562 0.160156 -0.992188 Z M 0.390625 -0.40625 L 0.390625 -0.992188 C 0.390625 -1.09375 0.46875 -1.167969 0.566406 -1.167969 L 2.113281 -1.167969 C 2.210938 -1.167969 2.289062 -1.09375 2.289062 -0.992188 L 2.289062 -0.40625 C 2.289062 -0.308594 2.210938 -0.230469 2.113281 -0.230469 L 0.566406 -0.230469 C 0.46875 -0.230469 0.390625 -0.308594 0.390625 -0.40625 Z M 0.390625 -0.40625 "/></g></g></g><g fill="#f7931a" fill-opacity="1"><g transform="translate(27.925786, 32.916669)"><g><path d="M 2.289062 -0.992188 L 2.289062 0 L 2.519531 0 L 2.519531 -0.992188 C 2.519531 -1.226562 2.347656 -1.398438 2.113281 -1.398438 L 0.566406 -1.398438 C 0.332031 -1.398438 0.160156 -1.226562 0.160156 -0.992188 L 0.160156 0 L 0.390625 0 L 0.390625 -0.992188 C 0.390625 -1.09375 0.46875 -1.167969 0.566406 -1.167969 L 2.113281 -1.167969 C 2.210938 -1.167969 2.289062 -1.09375 2.289062 -0.992188 Z M 2.289062 -0.992188 "/></g></g></g><g fill="#f7931a" fill-opacity="1"><g transform="translate(8.226048, 35.583337)"><g><path d="M 0.390625 -0.40625 L 0.390625 -0.992188 C 0.390625 -1.09375 0.46875 -1.167969 0.566406 -1.167969 L 2.519531 -1.167969 L 2.519531 -1.398438 L 0.566406 -1.398438 C 0.332031 -1.398438 0.160156 -1.226562 0.160156 -0.992188 L 0.160156 -0.40625 C 0.160156 -0.171875 0.332031 0 0.566406 0 L 2.519531 0 L 2.519531 -0.230469 L 0.566406 -0.230469 C 0.46875 -0.230469 0.390625 -0.308594 0.390625 -0.40625 Z M 0.390625 -0.40625 "/></g></g></g><g fill="#f7931a" fill-opacity="1"><g transform="translate(10.906068, 35.583337)"><g><path d="M 2.113281 -1.398438 L 0.566406 -1.398438 C 0.332031 -1.398438 0.160156 -1.226562 0.160156 -0.992188 L 0.160156 -0.40625 C 0.160156 -0.171875 0.332031 0 0.566406 0 L 2.113281 0 C 2.347656 0 2.519531 -0.171875 2.519531 -0.40625 L 2.519531 -0.992188 C 2.519531 -1.226562 2.347656 -1.398438 2.113281 -1.398438 Z M 0.390625 -0.40625 L 0.390625 -0.992188 C 0.390625 -1.09375 0.46875 -1.167969 0.566406 -1.167969 L 2.113281 -1.167969 C 2.210938 -1.167969 2.289062 -1.09375 2.289062 -0.992188 L 2.289062 -0.40625 C 2.289062 -0.308594 2.210938 -0.230469 2.113281 -0.230469 L 0.566406 -0.230469 C 0.46875 -0.230469 0.390625 -0.308594 0.390625 -0.40625 Z M 0.390625 -0.40625 "/></g></g></g><g fill="#f7931a" fill-opacity="1"><g transform="translate(13.586088, 35.583337)"><g><path d="M 2.289062 -0.992188 L 2.289062 0 L 2.519531 0 L 2.519531 -0.992188 C 2.519531 -1.226562 2.347656 -1.398438 2.113281 -1.398438 L 0.566406 -1.398438 C 0.332031 -1.398438 0.160156 -1.226562 0.160156 -0.992188 L 0.160156 0 L 0.390625 0 L 0.390625 -0.992188 C 0.390625 -1.09375 0.46875 -1.167969 0.566406 -1.167969 L 2.113281 -1.167969 C 2.210938 -1.167969 2.289062 -1.09375 2.289062 -0.992188 Z M 2.289062 -0.992188 "/></g></g></g><g fill="#f7931a" fill-opacity="1"><g transform="translate(16.266108, 35.583337)"><g><path d="M 1.304688 0 L 1.535156 0 L 1.535156 -1.167969 L 2.679688 -1.167969 L 2.679688 -1.398438 L 0.160156 -1.398438 L 0.160156 -1.167969 L 1.304688 -1.167969 Z M 1.304688 0 "/></g></g></g><g fill="#f7931a" fill-opacity="1"><g transform="translate(19.106129, 35.583337)"><g><path d="M 0.160156 0 L 2.039062 0 L 2.039062 -0.230469 L 1.214844 -0.230469 L 1.214844 -1.167969 L 2.039062 -1.167969 L 2.039062 -1.398438 L 0.160156 -1.398438 L 0.160156 -1.167969 L 0.984375 -1.167969 L 0.984375 -0.230469 L 0.160156 -0.230469 Z M 0.160156 0 "/></g></g></g><g fill="#f7931a" fill-opacity="1"><g transform="translate(21.306145, 35.583337)"><g><path d="M 2.289062 -0.992188 L 2.289062 0 L 2.519531 0 L 2.519531 -0.992188 C 2.519531 -1.226562 2.347656 -1.398438 2.113281 -1.398438 L 0.566406 -1.398438 C 0.332031 -1.398438 0.160156 -1.226562 0.160156 -0.992188 L 0.160156 0 L 0.390625 0 L 0.390625 -0.992188 C 0.390625 -1.09375 0.46875 -1.167969 0.566406 -1.167969 L 2.113281 -1.167969 C 2.210938 -1.167969 2.289062 -1.09375 2.289062 -0.992188 Z M 2.289062 -0.992188 "/></g></g></g><g fill="#f7931a" fill-opacity="1"><g transform="translate(23.986165, 35.583337)"><g><path d="M 2.289062 -1.398438 L 2.289062 -0.40625 C 2.289062 -0.308594 2.210938 -0.230469 2.113281 -0.230469 L 0.566406 -0.230469 C 0.46875 -0.230469 0.390625 -0.308594 0.390625 -0.40625 L 0.390625 -1.398438 L 0.160156 -1.398438 L 0.160156 -0.40625 C 0.160156 -0.171875 0.332031 0 0.566406 0 L 2.113281 0 C 2.347656 0 2.519531 -0.171875 2.519531 -0.40625 L 2.519531 -1.398438 Z M 2.289062 -1.398438 "/></g></g></g><g fill="#f7931a" fill-opacity="1"><g transform="translate(26.666185, 35.583337)"><g><path d="M 2.289062 -0.992188 L 2.289062 -0.816406 L 0.390625 -0.816406 L 0.390625 -0.992188 C 0.390625 -1.09375 0.46875 -1.167969 0.566406 -1.167969 L 2.113281 -1.167969 C 2.210938 -1.167969 2.289062 -1.09375 2.289062 -0.992188 Z M 0.160156 0 L 0.390625 0 L 0.390625 -0.585938 L 2.289062 -0.585938 L 2.289062 0 L 2.519531 0 L 2.519531 -0.992188 C 2.519531 -1.226562 2.347656 -1.398438 2.113281 -1.398438 L 0.566406 -1.398438 C 0.332031 -1.398438 0.160156 -1.226562 0.160156 -0.992188 Z M 0.160156 0 "/></g></g></g></svg>