<svg xmlns="http://www.w3.org/2000/svg" xmlns:xlink="http://www.w3.org/1999/xlink" width="50" zoomAndPan="magnify" viewBox="0 0 37.5 37.499999" height="50" preserveAspectRatio="xMidYMid meet" version="1.0"><defs><g/><clipPath id="d29ff741b5"><path d="M 0 0 L 37.007812 0 L 37.007812 37.007812 L 0 37.007812 Z M 0 0 " clip-rule="nonzero"/></clipPath><clipPath id="94b3fc85f2"><path d="M 6.183594 11 L 26 11 L 26 30.601562 L 6.183594 30.601562 Z M 6.183594 11 " clip-rule="nonzero"/></clipPath><clipPath id="7af066c584"><path d="M 15 2.101562 L 30 2.101562 L 30 15 L 15 15 Z M 15 2.101562 " clip-rule="nonzero"/></clipPath><clipPath id="02259e4296"><path d="M 31 11.105469 L 33.90625 11.105469 L 33.90625 16 L 31 16 Z M 31 11.105469 " clip-rule="nonzero"/></clipPath></defs><g clip-path="url(#d29ff741b5)"><path fill="#ffffff" d="M 0 0 L 37.5 0 L 37.5 37.5 L 0 37.5 Z M 0 0 " fill-opacity="1" fill-rule="nonzero"/><path fill="#ffffff" d="M 0 0 L 37.5 0 L 37.5 37.5 L 0 37.5 Z M 0 0 " fill-opacity="1" fill-rule="nonzero"/></g><g clip-path="url(#94b3fc85f2)"><path fill="#f7931a" d="M 22.957031 17.300781 C 22.957031 17.359375 22.78125 18.273438 22.84375 18.558594 C 22.84375 18.617188 23.015625 18.84375 23.074219 19.074219 C 23.304688 19.816406 22.84375 19.1875 23.425781 20.101562 C 23.480469 20.214844 23.542969 20.328125 23.597656 20.445312 C 23.597656 20.445312 23.597656 20.5 23.65625 20.5 C 23.714844 20.558594 23.886719 20.445312 23.949219 20.671875 C 23.949219 20.730469 24.003906 20.84375 24.003906 20.84375 L 24.066406 20.902344 L 24.183594 20.902344 C 24.355469 20.613281 24.355469 20.785156 24.527344 20.558594 C 24.589844 20.445312 24.644531 20.273438 24.761719 20.214844 C 24.820312 20.328125 24.9375 20.5 24.9375 20.671875 C 24.996094 20.902344 24.996094 20.957031 24.996094 21.015625 C 24.882812 23.300781 23.949219 25.355469 22.433594 26.84375 C 20.863281 28.441406 18.882812 29.296875 16.902344 29.46875 L 17.015625 29.414062 L 17.132812 29.242188 L 17.304688 29.011719 L 17.25 28.898438 L 17.25 28.839844 C 17.132812 28.839844 17.015625 28.839844 16.957031 28.898438 L 16.902344 28.898438 L 16.84375 28.839844 C 16.84375 28.785156 16.78125 28.785156 16.78125 28.726562 C 16.84375 28.671875 16.898438 28.726562 16.957031 28.671875 L 16.957031 28.613281 C 16.957031 28.554688 17.015625 28.554688 17.074219 28.554688 C 17.132812 28.554688 17.1875 28.5 17.1875 28.441406 C 17.132812 28.441406 17.015625 28.382812 17.015625 28.328125 L 17.246094 28.328125 C 17.246094 28.328125 17.246094 28.269531 17.304688 28.269531 C 17.304688 28.214844 17.363281 28.15625 17.480469 28.15625 L 17.421875 28.15625 L 17.421875 28.097656 C 17.363281 28.097656 17.363281 28.042969 17.421875 27.984375 L 17.539062 27.984375 C 17.65625 27.984375 17.714844 27.925781 17.773438 27.871094 L 17.773438 27.757812 L 17.886719 27.757812 C 18.003906 27.757812 18.121094 27.699219 18.238281 27.699219 C 18.355469 27.640625 18.472656 27.585938 18.585938 27.46875 L 18.527344 27.46875 L 18.527344 27.355469 C 18.585938 27.355469 18.585938 27.300781 18.644531 27.300781 L 18.703125 27.300781 C 18.878906 27.300781 19.054688 27.183594 19.167969 27.070312 C 19.285156 26.957031 19.402344 26.898438 19.519531 26.785156 L 19.695312 26.613281 C 19.753906 26.554688 19.8125 26.5 19.925781 26.441406 L 19.984375 26.386719 C 20.042969 26.328125 19.925781 26.15625 20.042969 26.15625 C 19.984375 25.984375 20.507812 25.757812 20.683594 25.699219 C 20.859375 25.640625 20.917969 25.640625 21.035156 25.472656 C 21.847656 24.613281 21.382812 24.671875 21.792969 23.984375 C 21.90625 23.8125 22.023438 23.644531 22.140625 23.472656 C 22.199219 23.355469 22.316406 23.015625 22.199219 22.957031 C 22.140625 22.898438 22.023438 23.015625 21.964844 22.898438 C 21.558594 22.613281 21.675781 22.671875 21.558594 22.730469 C 21.441406 22.785156 21.265625 22.671875 21.152344 22.730469 C 21.152344 22.730469 21.09375 22.785156 21.09375 22.730469 C 21.09375 22.671875 21.035156 22.671875 21.035156 22.613281 C 21.035156 22.613281 20.976562 22.671875 20.976562 22.613281 C 20.917969 22.558594 20.683594 22.5 20.625 22.558594 C 20.566406 22.558594 20.453125 22.785156 20.453125 22.730469 L 20.453125 22.671875 C 20.453125 22.671875 20.566406 22.671875 20.566406 22.5 C 20.566406 22.386719 20.277344 22.5 20.160156 22.558594 C 20.160156 22.441406 20.507812 22.273438 20.335938 22.15625 C 20.160156 22.042969 20.335938 21.871094 20.101562 21.757812 C 19.519531 21.472656 19.34375 21.644531 19.285156 21.644531 C 19.226562 21.644531 19.167969 21.527344 19.113281 21.527344 L 19.054688 21.527344 L 19.054688 21.472656 C 19.054688 21.414062 18.761719 21.1875 18.703125 21.242188 C 18.644531 21.242188 18.644531 21.128906 18.644531 21.128906 C 18.585938 21.070312 18.527344 21.128906 18.414062 21.015625 L 18.472656 20.957031 C 18.472656 20.902344 18.296875 20.957031 18.179688 20.957031 C 18.003906 21.070312 17.886719 20.957031 17.714844 20.957031 C 17.65625 20.957031 17.539062 21.015625 17.480469 20.957031 C 17.421875 20.84375 17.363281 20.902344 17.246094 20.84375 L 17.246094 20.785156 C 17.1875 20.785156 17.132812 20.785156 17.1875 20.84375 C 17.132812 20.84375 17.074219 20.902344 17.074219 20.957031 C 17.015625 21.015625 17.132812 21.070312 17.074219 21.1875 L 16.957031 21.1875 C 16.957031 21.128906 17.015625 21.070312 17.015625 21.015625 L 17.015625 20.957031 C 17.015625 20.902344 17.074219 20.84375 17.074219 20.84375 C 17.015625 20.84375 16.957031 20.902344 16.957031 20.902344 L 16.839844 20.902344 L 16.664062 21.1875 C 16.546875 21.128906 16.199219 21.242188 16.082031 21.472656 C 16.023438 21.527344 16.023438 21.644531 15.964844 21.699219 C 15.90625 21.757812 15.847656 21.699219 15.792969 21.644531 C 15.558594 21.414062 15.207031 21.757812 15.09375 21.527344 C 15.035156 21.300781 14.917969 21.472656 14.917969 21.1875 C 14.917969 20.902344 15.207031 20.5 14.160156 20.558594 C 14.277344 19.871094 14.507812 19.871094 14.507812 19.757812 C 14.507812 19.699219 14.394531 19.699219 14.335938 19.699219 C 13.8125 19.699219 13.925781 19.988281 13.8125 20.101562 C 13.8125 20.15625 13.753906 20.15625 13.695312 20.101562 C 13.578125 19.988281 13.460938 20.101562 13.40625 20.101562 C 13.289062 20.101562 12.996094 19.644531 13.054688 19.414062 C 13.113281 19.359375 12.996094 19.242188 13.054688 19.128906 C 13.054688 19.015625 13.171875 18.957031 13.171875 18.84375 C 13.171875 18.785156 13.113281 18.617188 13.460938 18.558594 C 13.578125 18.558594 13.523438 18.5 13.578125 18.445312 C 13.636719 18.386719 13.695312 18.445312 13.753906 18.386719 L 13.8125 18.386719 C 13.984375 18.328125 14.046875 18.671875 14.277344 18.445312 C 14.335938 18.386719 14.277344 18.445312 14.277344 18.386719 C 14.277344 18.328125 14.507812 18.328125 14.746094 18.386719 C 14.976562 18.5 14.917969 18.386719 14.976562 18.386719 C 15.09375 18.386719 15.09375 18.5 15.152344 18.617188 C 15.207031 19.242188 15.5 19.128906 15.5 19.015625 C 15.5 18.902344 15.441406 19.015625 15.5 18.785156 C 15.5625 18.617188 15.207031 18.386719 15.441406 18.101562 C 15.558594 17.988281 15.792969 17.871094 16.257812 17.585938 C 16.199219 17.359375 16.316406 17.1875 16.316406 17.128906 L 16.316406 17.015625 L 16.375 16.957031 C 16.433594 16.902344 16.375 16.789062 16.605469 16.730469 C 16.664062 16.730469 16.839844 16.730469 16.839844 16.671875 C 16.839844 16.617188 16.78125 16.617188 16.726562 16.558594 C 16.609375 16.445312 16.898438 16.386719 16.957031 16.332031 C 17.015625 16.273438 17.304688 16.042969 17.425781 16.101562 C 17.363281 16.160156 17.1875 16.214844 17.1875 16.332031 C 17.1875 16.386719 17.304688 16.445312 17.480469 16.273438 C 17.597656 16.101562 17.886719 16.160156 17.832031 15.988281 C 17.714844 16.042969 17.597656 16.042969 17.539062 16.042969 C 17.425781 15.988281 17.363281 15.875 17.246094 15.816406 C 17.246094 15.757812 17.304688 15.757812 17.363281 15.757812 C 17.480469 15.585938 17.015625 15.703125 16.898438 15.757812 C 16.898438 15.757812 16.898438 15.703125 16.957031 15.703125 C 17.015625 15.703125 17.015625 15.703125 17.074219 15.644531 C 17.074219 15.644531 17.074219 15.53125 17.246094 15.472656 C 17.363281 15.472656 17.65625 15.53125 18.003906 15.300781 C 17.832031 16.160156 17.945312 15.703125 18.296875 15.816406 C 18.296875 15.875 18.296875 15.875 18.355469 15.875 L 18.472656 15.875 C 18.820312 15.816406 18.414062 15.703125 18.414062 15.644531 C 18.355469 15.472656 18.355469 15.585938 18.238281 15.585938 C 18.179688 15.585938 18.121094 15.53125 18.121094 15.472656 C 18.121094 15.417969 18.179688 15.359375 18.121094 15.300781 C 18.121094 15.300781 18.0625 15.300781 18.0625 15.246094 C 18.003906 15.1875 18.0625 15.128906 18.003906 15.128906 C 17.945312 15.074219 17.886719 15.128906 17.832031 15.074219 C 17.773438 15.015625 17.832031 15.015625 17.714844 14.960938 C 17.597656 14.960938 17.539062 14.902344 17.480469 14.84375 C 17.304688 14.84375 17.363281 14.730469 17.304688 14.671875 C 17.304688 14.671875 17.074219 14.445312 17.074219 14.386719 C 16.898438 14.214844 17.015625 14.730469 16.664062 14.503906 C 16.722656 14.214844 16.082031 14.101562 15.964844 14.160156 L 15.964844 14.273438 C 15.964844 14.445312 15.90625 14.503906 15.847656 14.558594 C 15.847656 14.617188 15.847656 14.617188 15.90625 14.617188 C 16.140625 15.015625 15.792969 14.902344 15.734375 15.015625 C 15.734375 15.015625 15.792969 15.1875 15.792969 15.246094 C 15.792969 15.417969 15.5625 15.417969 15.5 15.1875 L 15.5 14.902344 C 15.207031 14.902344 14.976562 14.617188 14.683594 14.617188 C 14.746094 14.558594 14.746094 14.445312 14.683594 14.386719 L 14.628906 14.386719 C 14.628906 14.101562 14.917969 14.046875 14.976562 14.046875 C 15.035156 14.046875 15.09375 13.988281 15.441406 13.757812 C 15.5 13.816406 15.441406 13.929688 15.5 13.988281 C 15.5625 14.046875 15.675781 13.875 15.792969 13.929688 L 15.847656 13.988281 C 15.910156 13.988281 16.023438 13.875 15.734375 13.816406 C 15.675781 13.757812 15.734375 13.703125 15.792969 13.644531 C 15.910156 13.53125 15.847656 13.53125 15.847656 13.472656 C 15.847656 13.359375 16.023438 13.246094 16.257812 13.472656 C 16.375 13.589844 16.257812 13.644531 16.257812 13.703125 C 16.257812 13.757812 16.316406 13.757812 16.203125 13.816406 C 16.203125 13.816406 16.140625 13.875 16.203125 13.875 C 16.316406 13.816406 16.433594 13.988281 16.546875 13.929688 C 16.546875 14.046875 16.84375 14.101562 16.957031 14.101562 C 16.902344 14.046875 16.84375 13.988281 16.78125 13.988281 C 16.84375 13.988281 16.957031 13.988281 17.015625 14.046875 C 17.1875 14.160156 17.132812 13.875 16.78125 13.757812 C 16.84375 13.703125 16.957031 13.757812 17.074219 13.816406 C 17.074219 13.757812 17.132812 13.703125 17.1875 13.644531 C 16.957031 13.589844 16.78125 13.472656 16.609375 13.359375 C 16.609375 13.246094 16.375 13.1875 16.085938 13.074219 C 16.023438 12.84375 16.433594 12.730469 16.550781 12.84375 C 16.664062 12.960938 16.550781 12.902344 16.785156 12.902344 C 16.84375 12.902344 16.902344 12.902344 17.363281 13.1875 C 17.363281 13.246094 17.425781 13.246094 17.480469 13.246094 C 17.542969 13.246094 17.597656 13.359375 17.597656 13.417969 C 17.597656 13.472656 17.539062 13.53125 17.597656 13.644531 C 17.945312 14.101562 18.585938 14.273438 18.644531 14.214844 C 18.703125 14.160156 18.644531 14.160156 18.585938 14.101562 L 18.585938 13.988281 C 18.585938 13.875 18.472656 13.816406 18.414062 13.703125 C 18.414062 13.644531 18.414062 13.589844 18.472656 13.589844 L 18.527344 13.589844 C 18.644531 13.53125 18.527344 13.417969 18.527344 13.359375 C 18.527344 13.300781 18.589844 13.300781 18.644531 13.300781 C 18.644531 13.246094 18.703125 13.128906 18.644531 13.074219 C 18.585938 13.128906 18.472656 13.074219 18.414062 13.015625 L 18.527344 13.015625 C 18.527344 12.902344 18.355469 12.960938 18.296875 12.902344 C 18.238281 12.84375 18.296875 12.789062 18.179688 12.789062 C 17.945312 12.789062 17.886719 12.621094 17.832031 12.558594 C 17.773438 12.503906 17.65625 12.503906 17.480469 12.390625 C 17.832031 12.445312 18.238281 12.503906 18.589844 12.621094 L 18.644531 12.789062 L 18.820312 13.300781 L 19.167969 13.246094 L 19.167969 12.84375 L 18.648438 12.214844 C 18.707031 12.214844 18.765625 12.214844 18.765625 12.273438 L 18.765625 12.386719 C 18.820312 12.503906 18.820312 12.617188 18.882812 12.789062 C 19.054688 12.730469 19.289062 12.789062 19.402344 12.902344 C 19.636719 13.074219 19.578125 13.246094 20.277344 13.472656 C 20.335938 13.472656 20.394531 13.53125 20.453125 13.53125 C 20.507812 13.53125 20.570312 13.472656 20.570312 13.53125 C 20.628906 13.53125 20.628906 13.589844 20.683594 13.644531 C 20.746094 13.757812 20.859375 13.816406 20.917969 13.875 C 20.976562 13.929688 21.035156 14.101562 20.976562 14.160156 C 20.683594 14.046875 20.394531 13.875 20.101562 13.757812 C 20.101562 13.988281 20.453125 14.101562 20.625 14.332031 C 20.683594 14.386719 20.800781 14.84375 20.976562 14.671875 C 20.859375 14.617188 20.859375 14.445312 20.859375 14.332031 C 20.917969 14.386719 21.207031 14.730469 21.265625 14.730469 C 21.265625 14.503906 21.207031 14.332031 21.152344 14.214844 C 21.734375 15.074219 21.558594 14.902344 21.792969 14.960938 C 21.90625 15.015625 21.964844 15.1875 21.964844 15.300781 C 21.90625 15.417969 21.792969 15.472656 21.792969 15.417969 C 21.90625 15.644531 21.964844 15.816406 22.082031 16.042969 C 22.199219 16.042969 22.257812 16.101562 22.316406 16.214844 C 22.316406 16.332031 22.433594 16.386719 22.488281 16.386719 C 22.605469 16.5 22.664062 16.671875 22.722656 16.84375 C 22.84375 16.957031 22.957031 17.128906 22.957031 17.300781 Z M 6.765625 20.730469 C 6.765625 17.757812 8.28125 15.128906 10.550781 13.472656 L 10.609375 14.101562 C 10.902344 13.875 11.132812 13.703125 11.425781 13.53125 L 11.484375 13.589844 L 11.601562 13.589844 C 11.714844 13.757812 11.773438 13.875 11.601562 13.988281 C 11.714844 14.214844 11.484375 14.445312 11.425781 14.730469 C 11.425781 14.84375 11.191406 14.84375 11.367188 15.128906 C 11.542969 15.53125 11.308594 15.300781 11.25 15.417969 C 11.25 15.472656 11.191406 15.472656 10.902344 15.988281 C 10.785156 16.101562 10.785156 16.214844 10.726562 16.332031 C 10.726562 16.386719 10.550781 16.617188 10.550781 16.617188 C 10.492188 16.671875 10.492188 16.957031 10.550781 17.128906 C 10.609375 17.359375 10.726562 17.414062 10.726562 17.703125 C 10.726562 18.273438 10.902344 18.214844 10.726562 18.273438 C 10.667969 18.273438 10.726562 18.328125 10.726562 18.386719 C 11.015625 18.617188 10.726562 18.5 10.957031 18.902344 C 11.015625 18.957031 11.015625 19.074219 11.074219 19.128906 C 11.132812 19.074219 11.132812 18.902344 11.074219 18.84375 C 10.957031 18.785156 11.132812 18.617188 11.015625 18.445312 C 10.957031 18.328125 10.957031 18.328125 10.957031 18.214844 C 10.957031 18.042969 10.667969 17.929688 10.957031 17.644531 C 10.957031 17.757812 11.074219 17.757812 11.074219 17.988281 C 11.191406 18.730469 11.425781 18.84375 11.484375 19.074219 C 11.65625 19.699219 11.191406 19.414062 11.832031 19.929688 C 12.707031 20.613281 12.648438 20.328125 12.824219 20.328125 C 13.054688 20.328125 13.464844 21.015625 13.871094 20.785156 C 13.871094 20.957031 14.046875 21.070312 14.105469 21.242188 C 14.105469 21.300781 14.105469 21.359375 14.164062 21.359375 C 14.222656 21.414062 14.277344 21.359375 14.277344 21.359375 C 14.683594 21.644531 14.277344 21.527344 14.863281 21.757812 C 14.917969 21.757812 14.976562 21.929688 15.035156 21.871094 L 14.976562 21.816406 C 14.976562 21.816406 14.976562 21.757812 15.035156 21.757812 C 15.09375 21.757812 15.207031 21.472656 15.324219 21.699219 C 15.5 22.101562 15.5 21.984375 15.5 22.15625 C 15.5 22.273438 15.5625 22.386719 15.5625 22.386719 C 15.5625 22.5 15.324219 22.5 15.324219 22.613281 C 15.324219 22.671875 15.324219 22.730469 15.210938 22.785156 C 15.152344 22.785156 15.152344 22.84375 15.152344 22.898438 C 15.152344 22.957031 15.09375 23.015625 15.09375 22.957031 C 15.152344 23.070312 14.917969 23.070312 15.152344 23.242188 C 15.324219 23.414062 14.976562 23.300781 14.976562 23.644531 C 14.976562 23.929688 15.269531 23.929688 15.324219 24.101562 C 15.5 24.441406 15.5 24.5 15.617188 24.671875 C 15.734375 24.785156 15.675781 24.785156 15.675781 24.898438 C 15.734375 25.183594 16.546875 25.242188 16.609375 25.640625 L 16.609375 26.039062 C 16.546875 26.097656 16.546875 26.152344 16.546875 26.269531 C 16.546875 26.441406 16.375 26.898438 16.375 27.066406 C 16.375 27.410156 16.203125 27.46875 16.144531 27.757812 C 16.027344 28.097656 16.375 27.980469 16.027344 28.382812 C 15.96875 28.382812 15.910156 28.671875 16.027344 28.839844 C 16.085938 28.957031 16.203125 29.011719 16.261719 29.066406 L 15.503906 29.066406 L 15.503906 29.128906 C 15.675781 29.46875 15.96875 29.585938 16.144531 29.640625 C 11.308594 29.695312 6.765625 26.15625 6.765625 20.730469 Z M 16.609375 11.816406 L 16.492188 11.816406 C 16.316406 11.816406 16.203125 11.875 16.144531 11.929688 L 15.96875 11.929688 C 15.96875 11.929688 15.445312 11.929688 15.269531 12.046875 L 15.210938 12.046875 C 15.152344 12.046875 15.09375 12.046875 15.09375 12.101562 L 15.035156 12.101562 C 14.6875 12.101562 14.164062 12.214844 14.164062 12.214844 L 13.636719 12.332031 L 13.636719 12.386719 C 13.582031 12.386719 13.523438 12.386719 13.523438 12.445312 C 13.464844 12.332031 13.347656 12.273438 13.230469 12.214844 C 14.105469 11.929688 14.976562 11.816406 15.96875 11.816406 C 16.085938 11.757812 16.375 11.757812 16.609375 11.816406 Z M 18.644531 12.214844 L 18.296875 12.386719 C 18.238281 12.332031 18.066406 12.273438 17.949219 12.214844 C 17.886719 12.160156 17.886719 12.160156 17.832031 12.101562 C 17.714844 12.046875 17.65625 11.988281 17.542969 11.988281 C 17.480469 11.988281 17.480469 11.988281 17.425781 11.929688 C 17.363281 11.875 17.308594 11.875 17.308594 11.875 C 17.773438 11.929688 18.183594 12.046875 18.644531 12.214844 Z M 15.503906 12.558594 L 15.445312 12.617188 L 15.386719 12.617188 C 15.328125 12.617188 15.328125 12.671875 15.328125 12.730469 C 15.328125 12.789062 15.328125 12.789062 15.269531 12.730469 C 15.207031 12.617188 14.335938 12.789062 14.277344 12.789062 C 14.277344 12.84375 14.335938 12.960938 14.394531 13.015625 C 14.453125 13.074219 14.394531 13.128906 14.394531 13.128906 C 14.222656 12.960938 14.222656 13.015625 14.222656 13.015625 C 14.164062 12.960938 14.164062 12.902344 14.046875 12.960938 L 14.046875 12.902344 C 13.929688 12.902344 13.8125 12.960938 13.695312 12.960938 C 13.636719 12.960938 13.636719 12.960938 13.582031 13.015625 C 13.582031 13.074219 13.582031 13.128906 13.636719 13.128906 C 13.695312 13.128906 13.753906 13.128906 13.8125 13.074219 L 13.8125 13.128906 C 13.8125 13.1875 13.871094 13.1875 13.871094 13.246094 C 13.871094 13.300781 13.8125 13.246094 13.753906 13.246094 L 13.695312 13.300781 C 13.695312 13.300781 13.695312 13.359375 13.753906 13.359375 C 13.523438 13.246094 13.464844 13.074219 13.347656 13.1875 L 13.347656 13.128906 C 12.707031 13.074219 12.996094 13.128906 12.941406 13.015625 L 12.882812 13.015625 L 12.882812 12.960938 C 13.8125 12.617188 14.804688 12.445312 15.851562 12.445312 C 16.144531 12.445312 16.375 12.445312 16.667969 12.503906 L 16.375 12.503906 C 16.375 12.558594 16.375 12.558594 16.316406 12.558594 C 16.261719 12.558594 16.203125 12.617188 16.027344 12.730469 C 16.027344 12.671875 16.027344 12.617188 16.085938 12.617188 C 15.96875 12.445312 15.5625 12.503906 15.503906 12.558594 Z M 18.9375 11.703125 C 17.949219 11.359375 16.902344 11.1875 15.851562 11.1875 C 10.492188 11.1875 6.183594 15.472656 6.183594 20.671875 C 6.183594 26.15625 10.957031 30.554688 16.550781 30.15625 C 27.035156 29.46875 29.015625 15.015625 18.9375 11.703125 " fill-opacity="1" fill-rule="nonzero"/></g><g clip-path="url(#7af066c584)"><path fill="#f7931a" d="M 29.363281 9.246094 C 29.363281 8.960938 29.539062 8.675781 29.773438 8.503906 L 27.675781 5.246094 C 27.5 5.019531 27.207031 4.792969 26.917969 4.734375 L 15.734375 2.222656 C 15.152344 2.105469 14.863281 2.507812 15.152344 3.019531 L 17.890625 7.304688 C 18.472656 6.90625 19.054688 6.5625 19.636719 6.273438 C 19.984375 6.105469 20.335938 6.046875 20.683594 6.046875 C 20.917969 6.046875 21.207031 6.105469 21.441406 6.160156 C 24.066406 7.074219 26.21875 8.617188 28.082031 10.789062 C 28.488281 11.246094 28.664062 11.875 28.546875 12.503906 C 28.433594 13.1875 28.316406 13.816406 28.140625 14.503906 L 28.375 14.558594 C 28.488281 14.273438 28.664062 14.046875 28.898438 13.875 L 29.363281 9.246094 " fill-opacity="1" fill-rule="nonzero"/></g><g clip-path="url(#02259e4296)"><path fill="#f7931a" d="M 33.789062 14.789062 L 31.460938 11.1875 L 31.226562 14.046875 C 31.519531 14.386719 31.695312 14.789062 31.636719 15.246094 L 33.207031 15.585938 C 33.789062 15.703125 34.082031 15.300781 33.789062 14.789062 " fill-opacity="1" fill-rule="nonzero"/></g><path fill="#f7931a" d="M 21.269531 6.675781 C 20.800781 6.507812 20.335938 6.5625 19.925781 6.789062 C 18.296875 7.589844 16.664062 8.847656 15.09375 10.675781 C 15.269531 10.675781 15.386719 10.675781 15.5625 10.617188 L 16.203125 10.617188 C 17.304688 10.617188 18.355469 10.789062 19.34375 11.132812 C 22.664062 12.214844 25.113281 14.902344 25.867188 18.160156 C 27.09375 16.101562 27.792969 14.214844 28.023438 12.386719 C 28.082031 11.929688 27.964844 11.472656 27.675781 11.132812 C 25.867188 9.074219 23.828125 7.589844 21.269531 6.675781 " fill-opacity="1" fill-rule="nonzero"/><path fill="#f7931a" d="M 30.527344 8.789062 C 30.238281 8.789062 29.945312 9.015625 29.886719 9.304688 L 29.421875 14.160156 C 29.074219 14.332031 28.839844 14.617188 28.839844 15.015625 C 28.78125 15.300781 28.898438 15.585938 29.132812 15.816406 L 28.433594 18.214844 C 28.375 18.445312 28.546875 18.730469 28.78125 18.730469 L 30.46875 18.902344 C 30.703125 18.902344 30.9375 18.730469 30.9375 18.445312 L 30.644531 15.988281 C 30.878906 15.816406 31.054688 15.53125 31.054688 15.246094 C 31.113281 14.84375 30.9375 14.503906 30.644531 14.332031 L 31.113281 9.472656 C 31.054688 9.132812 30.878906 8.847656 30.527344 8.789062 " fill-opacity="1" fill-rule="nonzero"/><path stroke-linecap="butt" transform="matrix(0.166667, 0, 0, 0.166667, 1.533629, 32.416662)" fill="none" stroke-linejoin="miter" d="M 39.923251 11.000034 L 41.329502 11.000034 L 41.329502 7.484407 L 51.642009 7.484407 C 53.04826 7.484407 54.07951 6.453156 54.07951 5.046905 C 54.07951 3.640654 53.04826 2.609403 51.642009 2.609403 L 39.923251 2.609403 Z M 41.329502 6.101593 L 41.329502 3.992217 L 51.642009 3.992217 C 52.251384 3.992217 52.696697 4.43753 52.696697 5.046905 C 52.696697 5.65628 52.251384 6.101593 51.642009 6.101593 Z M 67.720144 2.609403 L 58.462326 2.609403 C 57.032637 2.609403 56.001387 3.640654 56.001387 5.046905 L 56.001387 8.539095 C 56.001387 9.968783 57.032637 11.000034 58.462326 11.000034 L 67.720144 11.000034 C 69.126395 11.000034 70.157646 9.968783 70.157646 8.539095 L 70.157646 5.046905 C 70.157646 3.640654 69.126395 2.609403 67.720144 2.609403 Z M 57.407637 8.539095 L 57.407637 5.046905 C 57.407637 4.43753 57.85295 3.992217 58.462326 3.992217 L 67.720144 3.992217 C 68.32952 3.992217 68.774833 4.43753 68.774833 5.046905 L 68.774833 8.539095 C 68.774833 9.14847 68.32952 9.617221 67.720144 9.617221 L 58.462326 9.617221 C 57.85295 9.617221 57.407637 9.14847 57.407637 8.539095 Z M 83.79828 6.101593 L 74.540461 6.101593 C 73.931086 6.101593 73.485773 5.65628 73.485773 5.046905 C 73.485773 4.43753 73.931086 3.992217 74.540461 3.992217 L 85.884219 3.992217 L 85.884219 2.609403 L 74.540461 2.609403 C 73.110773 2.609403 72.079522 3.640654 72.079522 5.046905 C 72.079522 6.453156 73.110773 7.484407 74.540461 7.484407 L 83.79828 7.484407 C 84.407656 7.484407 84.852968 7.953157 84.852968 8.539095 C 84.852968 9.14847 84.407656 9.617221 83.79828 9.617221 L 72.454523 9.617221 L 72.454523 11.000034 L 83.79828 11.000034 C 85.227969 11.000034 86.259219 9.968783 86.259219 8.539095 C 86.259219 7.132844 85.227969 6.101593 83.79828 6.101593 Z M 96.337351 7.484407 L 100.931104 7.484407 L 100.931104 8.539095 C 100.931104 9.14847 100.485791 9.617221 99.876416 9.617221 L 90.618597 9.617221 C 90.009222 9.617221 89.563909 9.14847 89.563909 8.539095 L 89.563909 5.046905 C 89.563909 4.43753 90.009222 3.992217 90.618597 3.992217 L 99.876416 3.992217 C 100.485791 3.992217 100.931104 4.43753 100.931104 5.046905 L 102.337355 5.046905 C 102.337355 3.640654 101.306104 2.609403 99.876416 2.609403 L 90.618597 2.609403 C 89.212346 2.609403 88.204533 3.617217 88.181096 5.00003 L 88.181096 8.539095 C 88.181096 9.968783 89.212346 11.000034 90.618597 11.000034 L 99.876416 11.000034 C 101.306104 11.000034 102.337355 9.968783 102.337355 8.539095 L 102.337355 6.101593 L 96.337351 6.101593 Z M 104.259231 11.000034 L 105.642045 11.000034 L 105.642045 7.484407 L 114.196738 7.484407 C 115.837364 7.484407 117.00924 8.67972 117.00924 10.296909 L 117.00924 11.000034 L 118.415491 11.000034 L 118.415491 10.296909 C 118.415491 9.031283 117.946741 7.953157 117.149865 7.226594 C 117.923303 6.828156 118.415491 6.007843 118.415491 5.046905 C 118.415491 3.640654 117.38424 2.609403 115.954552 2.609403 L 104.259231 2.609403 Z M 105.642045 6.101593 L 105.642045 3.992217 L 115.954552 3.992217 C 116.563927 3.992217 117.00924 4.43753 117.00924 5.046905 C 117.00924 5.65628 116.563927 6.101593 115.954552 6.101593 Z M 133.087376 5.046905 L 133.087376 6.101593 L 121.720181 6.101593 L 121.720181 5.046905 C 121.720181 4.43753 122.165493 3.992217 122.774869 3.992217 L 132.032687 3.992217 C 132.642063 3.992217 133.087376 4.43753 133.087376 5.046905 Z M 120.337367 11.000034 L 121.720181 11.000034 L 121.720181 7.484407 L 133.087376 7.484407 L 133.087376 11.000034 L 134.493627 11.000034 L 134.493627 5.046905 C 134.493627 3.640654 133.462376 2.609403 132.032687 2.609403 L 122.774869 2.609403 C 121.368618 2.609403 120.337367 3.640654 120.337367 5.046905 Z M 136.415503 11.000034 L 148.110823 11.000034 C 149.540512 11.000034 150.571762 9.968783 150.571762 8.539095 L 150.571762 5.046905 C 150.571762 3.640654 149.540512 2.609403 148.110823 2.609403 L 136.415503 2.609403 Z M 137.798316 9.617221 L 137.798316 3.992217 L 148.110823 3.992217 C 148.720199 3.992217 149.188949 4.43753 149.188949 5.046905 L 149.188949 8.539095 C 149.188949 9.14847 148.720199 9.617221 148.110823 9.617221 Z M 164.188959 2.609403 L 154.93114 2.609403 C 153.524889 2.609403 152.493639 3.640654 152.493639 5.046905 L 152.493639 8.539095 C 152.493639 9.968783 153.524889 11.000034 154.93114 11.000034 L 164.188959 11.000034 C 165.618648 11.000034 166.649898 9.968783 166.649898 8.539095 L 166.649898 5.046905 C 166.649898 3.640654 165.618648 2.609403 164.188959 2.609403 Z M 153.876452 8.539095 L 153.876452 5.046905 C 153.876452 4.43753 154.345202 3.992217 154.93114 3.992217 L 164.188959 3.992217 C 164.798334 3.992217 165.267085 4.43753 165.267085 5.046905 L 165.267085 8.539095 C 165.267085 9.14847 164.798334 9.617221 164.188959 9.617221 L 154.93114 9.617221 C 154.345202 9.617221 153.876452 9.14847 153.876452 8.539095 Z M 153.876452 8.539095 " stroke="#808080" stroke-width="0.9" stroke-opacity="1" stroke-miterlimit="4"/><g fill="#f7931a" fill-opacity="1"><g transform="translate(8.028417, 34.249994)"><g><path d="M 0.160156 0 L 0.390625 0 L 0.390625 -0.585938 L 2.113281 -0.585938 C 2.347656 -0.585938 2.519531 -0.757812 2.519531 -0.992188 C 2.519531 -1.226562 2.347656 -1.398438 2.113281 -1.398438 L 0.160156 -1.398438 Z M 0.390625 -0.816406 L 0.390625 -1.167969 L 2.113281 -1.167969 C 2.210938 -1.167969 2.289062 -1.09375 2.289062 -0.992188 C 2.289062 -0.890625 2.210938 -0.816406 2.113281 -0.816406 Z M 0.390625 -0.816406 "/></g></g></g><g fill="#f7931a" fill-opacity="1"><g transform="translate(10.708433, 34.249994)"><g><path d="M 2.113281 -1.398438 L 0.566406 -1.398438 C 0.332031 -1.398438 0.160156 -1.226562 0.160156 -0.992188 L 0.160156 -0.40625 C 0.160156 -0.171875 0.332031 0 0.566406 0 L 2.113281 0 C 2.347656 0 2.519531 -0.171875 2.519531 -0.40625 L 2.519531 -0.992188 C 2.519531 -1.226562 2.347656 -1.398438 2.113281 -1.398438 Z M 0.390625 -0.40625 L 0.390625 -0.992188 C 0.390625 -1.09375 0.46875 -1.167969 0.566406 -1.167969 L 2.113281 -1.167969 C 2.210938 -1.167969 2.289062 -1.09375 2.289062 -0.992188 L 2.289062 -0.40625 C 2.289062 -0.308594 2.210938 -0.230469 2.113281 -0.230469 L 0.566406 -0.230469 C 0.46875 -0.230469 0.390625 -0.308594 0.390625 -0.40625 Z M 0.390625 -0.40625 "/></g></g></g><g fill="#f7931a" fill-opacity="1"><g transform="translate(13.388449, 34.249994)"><g><path d="M 2.113281 -0.816406 L 0.566406 -0.816406 C 0.46875 -0.816406 0.390625 -0.890625 0.390625 -0.992188 C 0.390625 -1.09375 0.46875 -1.167969 0.566406 -1.167969 L 2.460938 -1.167969 L 2.460938 -1.398438 L 0.566406 -1.398438 C 0.332031 -1.398438 0.160156 -1.226562 0.160156 -0.992188 C 0.160156 -0.757812 0.332031 -0.585938 0.566406 -0.585938 L 2.113281 -0.585938 C 2.210938 -0.585938 2.289062 -0.507812 2.289062 -0.40625 C 2.289062 -0.308594 2.210938 -0.230469 2.113281 -0.230469 L 0.21875 -0.230469 L 0.21875 0 L 2.113281 0 C 2.347656 0 2.519531 -0.171875 2.519531 -0.40625 C 2.519531 -0.644531 2.347656 -0.816406 2.113281 -0.816406 Z M 2.113281 -0.816406 "/></g></g></g><g fill="#f7931a" fill-opacity="1"><g transform="translate(16.068466, 34.249994)"><g><path d="M 1.519531 -0.585938 L 2.289062 -0.585938 L 2.289062 -0.40625 C 2.289062 -0.308594 2.210938 -0.230469 2.113281 -0.230469 L 0.566406 -0.230469 C 0.46875 -0.230469 0.390625 -0.308594 0.390625 -0.40625 L 0.390625 -0.992188 C 0.390625 -1.09375 0.46875 -1.167969 0.566406 -1.167969 L 2.113281 -1.167969 C 2.210938 -1.167969 2.289062 -1.09375 2.289062 -0.992188 L 2.519531 -0.992188 C 2.519531 -1.226562 2.347656 -1.398438 2.113281 -1.398438 L 0.566406 -1.398438 C 0.335938 -1.398438 0.164062 -1.230469 0.160156 -1 L 0.160156 -0.40625 C 0.160156 -0.171875 0.332031 0 0.566406 0 L 2.113281 0 C 2.347656 0 2.519531 -0.171875 2.519531 -0.40625 L 2.519531 -0.816406 L 1.519531 -0.816406 Z M 1.519531 -0.585938 "/></g></g></g><g fill="#f7931a" fill-opacity="1"><g transform="translate(18.748482, 34.249994)"><g><path d="M 0.160156 0 L 0.390625 0 L 0.390625 -0.585938 L 1.820312 -0.585938 C 2.089844 -0.585938 2.289062 -0.386719 2.289062 -0.117188 L 2.289062 0 L 2.519531 0 L 2.519531 -0.117188 C 2.519531 -0.324219 2.441406 -0.507812 2.308594 -0.628906 C 2.4375 -0.695312 2.519531 -0.828125 2.519531 -0.992188 C 2.519531 -1.226562 2.347656 -1.398438 2.113281 -1.398438 L 0.160156 -1.398438 Z M 0.390625 -0.816406 L 0.390625 -1.167969 L 2.113281 -1.167969 C 2.210938 -1.167969 2.289062 -1.09375 2.289062 -0.992188 C 2.289062 -0.890625 2.210938 -0.816406 2.113281 -0.816406 Z M 0.390625 -0.816406 "/></g></g></g><g fill="#f7931a" fill-opacity="1"><g transform="translate(21.428498, 34.249994)"><g><path d="M 2.289062 -0.992188 L 2.289062 -0.816406 L 0.390625 -0.816406 L 0.390625 -0.992188 C 0.390625 -1.09375 0.46875 -1.167969 0.566406 -1.167969 L 2.113281 -1.167969 C 2.210938 -1.167969 2.289062 -1.09375 2.289062 -0.992188 Z M 0.160156 0 L 0.390625 0 L 0.390625 -0.585938 L 2.289062 -0.585938 L 2.289062 0 L 2.519531 0 L 2.519531 -0.992188 C 2.519531 -1.226562 2.347656 -1.398438 2.113281 -1.398438 L 0.566406 -1.398438 C 0.332031 -1.398438 0.160156 -1.226562 0.160156 -0.992188 Z M 0.160156 0 "/></g></g></g><g fill="#f7931a" fill-opacity="1"><g transform="translate(24.108514, 34.249994)"><g><path d="M 0.160156 0 L 2.113281 0 C 2.347656 0 2.519531 -0.171875 2.519531 -0.40625 L 2.519531 -0.992188 C 2.519531 -1.226562 2.347656 -1.398438 2.113281 -1.398438 L 0.160156 -1.398438 Z M 0.390625 -0.230469 L 0.390625 -1.167969 L 2.113281 -1.167969 C 2.210938 -1.167969 2.289062 -1.09375 2.289062 -0.992188 L 2.289062 -0.40625 C 2.289062 -0.308594 2.210938 -0.230469 2.113281 -0.230469 Z M 0.390625 -0.230469 "/></g></g></g><g fill="#f7931a" fill-opacity="1"><g transform="translate(26.788531, 34.249994)"><g><path d="M 2.113281 -1.398438 L 0.566406 -1.398438 C 0.332031 -1.398438 0.160156 -1.226562 0.160156 -0.992188 L 0.160156 -0.40625 C 0.160156 -0.171875 0.332031 0 0.566406 0 L 2.113281 0 C 2.347656 0 2.519531 -0.171875 2.519531 -0.40625 L 2.519531 -0.992188 C 2.519531 -1.226562 2.347656 -1.398438 2.113281 -1.398438 Z M 0.390625 -0.40625 L 0.390625 -0.992188 C 0.390625 -1.09375 0.46875 -1.167969 0.566406 -1.167969 L 2.113281 -1.167969 C 2.210938 -1.167969 2.289062 -1.09375 2.289062 -0.992188 L 2.289062 -0.40625 C 2.289062 -0.308594 2.210938 -0.230469 2.113281 -0.230469 L 0.566406 -0.230469 C 0.46875 -0.230469 0.390625 -0.308594 0.390625 -0.40625 Z M 0.390625 -0.40625 "/></g></g></g></svg>