<svg xmlns="http://www.w3.org/2000/svg" xmlns:xlink="http://www.w3.org/1999/xlink" width="50" zoomAndPan="magnify" viewBox="0 0 37.5 37.499999" height="50" preserveAspectRatio="xMidYMid meet" version="1.0"><defs><g/><clipPath id="1808909a56"><path d="M 0 0 L 37.007812 0 L 37.007812 37.007812 L 0 37.007812 Z M 0 0 " clip-rule="nonzero"/></clipPath><clipPath id="2befa3aacb"><path d="M 15 3.75 L 33.132812 3.75 L 33.132812 16 L 15 16 Z M 15 3.75 " clip-rule="nonzero"/></clipPath><clipPath id="e16f11273f"><path d="M 4.632812 24 L 27 24 L 27 29.25 L 4.632812 29.25 Z M 4.632812 24 " clip-rule="nonzero"/></clipPath></defs><g clip-path="url(#1808909a56)"><path fill="#ffffff" d="M 0 0 L 37.5 0 L 37.5 37.5 L 0 37.5 Z M 0 0 " fill-opacity="1" fill-rule="nonzero"/><path fill="#ffffff" d="M 0 0 L 37.5 0 L 37.5 37.5 L 0 37.5 Z M 0 0 " fill-opacity="1" fill-rule="nonzero"/></g><path fill="#f7931a" d="M 24.957031 9.832031 C 24.976562 9.191406 25.082031 8.8125 25.183594 8.605469 L 25.183594 9.859375 C 25.449219 9.921875 25.675781 10.105469 25.789062 10.363281 C 25.988281 10.808594 25.78125 11.332031 25.328125 11.527344 C 25.28125 11.550781 25.234375 11.570312 25.183594 11.589844 L 25.183594 13.5625 C 25.183594 13.789062 25.371094 13.972656 25.597656 13.972656 C 25.828125 13.972656 26.011719 13.789062 26.011719 13.5625 L 26.011719 10.578125 L 26.167969 10.578125 L 26.167969 13.5625 C 26.167969 13.789062 26.351562 13.972656 26.578125 13.972656 C 26.808594 13.972656 26.992188 13.789062 26.992188 13.5625 L 26.992188 8.605469 C 27.011719 8.644531 27.03125 8.691406 27.054688 8.746094 C 27.148438 9.003906 27.226562 9.425781 27.226562 10.089844 C 27.226562 10.269531 27.21875 10.472656 27.207031 10.691406 C 27.199219 10.835938 27.3125 10.960938 27.457031 10.972656 C 27.464844 10.972656 27.46875 10.972656 27.472656 10.972656 C 27.613281 10.972656 27.734375 10.863281 27.742188 10.722656 C 27.753906 10.492188 27.761719 10.28125 27.761719 10.089844 C 27.757812 9.089844 27.597656 8.539062 27.378906 8.207031 C 27.269531 8.042969 27.140625 7.9375 27.023438 7.878906 C 26.90625 7.820312 26.808594 7.808594 26.746094 7.808594 C 26.742188 7.808594 26.738281 7.804688 26.734375 7.804688 L 25.441406 7.804688 C 25.4375 7.804688 25.433594 7.808594 25.429688 7.808594 C 25.371094 7.808594 25.269531 7.820312 25.15625 7.878906 C 24.976562 7.964844 24.78125 8.160156 24.648438 8.5 C 24.515625 8.828125 24.425781 9.292969 24.417969 9.984375 C 24.480469 9.960938 24.546875 9.933594 24.609375 9.90625 C 24.71875 9.859375 24.835938 9.832031 24.957031 9.832031 Z M 24.957031 9.832031 " fill-opacity="1" fill-rule="nonzero"/><path fill="#f7931a" d="M 26.839844 6.875 C 26.839844 7.078125 26.769531 7.253906 26.621094 7.398438 C 26.472656 7.546875 26.296875 7.617188 26.089844 7.617188 C 25.882812 7.617188 25.703125 7.546875 25.558594 7.398438 C 25.410156 7.253906 25.335938 7.078125 25.335938 6.875 C 25.335938 6.667969 25.410156 6.492188 25.558594 6.347656 C 25.703125 6.203125 25.882812 6.128906 26.089844 6.128906 C 26.296875 6.128906 26.472656 6.203125 26.621094 6.347656 C 26.769531 6.492188 26.839844 6.667969 26.839844 6.875 Z M 26.839844 6.875 " fill-opacity="1" fill-rule="nonzero"/><path fill="#f7931a" d="M 15.570312 20.097656 C 16.101562 20.097656 16.589844 20.277344 16.984375 20.574219 L 16.984375 18.140625 L 17.359375 18.140625 L 17.359375 20.9375 C 17.691406 21.332031 17.890625 21.839844 17.890625 22.394531 C 17.890625 22.945312 17.691406 23.453125 17.359375 23.851562 L 17.359375 24.195312 C 17.550781 24.21875 17.796875 24.273438 18.0625 24.40625 C 18.414062 24.582031 18.738281 24.859375 19.011719 25.21875 C 19.132812 25.058594 19.253906 24.925781 19.375 24.8125 L 19.375 12.628906 C 19.769531 12.59375 20.324219 12.53125 20.96875 12.433594 C 22.234375 12.242188 23.835938 11.90625 25.230469 11.308594 C 25.558594 11.164062 25.710938 10.785156 25.566406 10.457031 C 25.421875 10.132812 25.035156 9.984375 24.707031 10.125 C 23.492188 10.652344 21.972656 10.980469 20.769531 11.160156 C 20.167969 11.253906 19.644531 11.3125 19.269531 11.34375 C 19.085938 11.363281 18.9375 11.375 18.839844 11.378906 C 18.800781 11.382812 18.769531 11.386719 18.746094 11.386719 L 15.597656 11.386719 C 15.589844 11.386719 15.582031 11.386719 15.574219 11.386719 C 15.425781 11.390625 15.179688 11.421875 14.898438 11.558594 C 14.460938 11.773438 13.988281 12.246094 13.660156 13.078125 C 13.324219 13.914062 13.097656 15.121094 13.097656 16.949219 C 13.097656 17.417969 13.113281 17.933594 13.148438 18.492188 C 13.167969 18.832031 13.453125 19.097656 13.796875 19.097656 C 13.808594 19.097656 13.824219 19.097656 13.835938 19.097656 C 14.195312 19.074219 14.46875 18.769531 14.449219 18.414062 C 14.417969 17.878906 14.402344 17.390625 14.402344 16.949219 C 14.398438 14.996094 14.6875 13.902344 14.96875 13.328125 L 14.96875 20.175781 C 15.160156 20.125 15.363281 20.097656 15.570312 20.097656 Z M 15.570312 20.097656 " fill-opacity="1" fill-rule="nonzero"/><path fill="#f7931a" d="M 19.003906 9.117188 C 19.003906 9.355469 18.957031 9.585938 18.867188 9.808594 C 18.773438 10.03125 18.640625 10.226562 18.46875 10.398438 C 18.296875 10.566406 18.097656 10.699219 17.875 10.789062 C 17.648438 10.882812 17.414062 10.929688 17.171875 10.929688 C 16.929688 10.929688 16.695312 10.882812 16.472656 10.789062 C 16.246094 10.699219 16.046875 10.566406 15.875 10.398438 C 15.703125 10.226562 15.570312 10.03125 15.480469 9.808594 C 15.386719 9.585938 15.339844 9.355469 15.339844 9.117188 C 15.339844 8.875 15.386719 8.644531 15.480469 8.421875 C 15.570312 8.199219 15.703125 8.003906 15.875 7.835938 C 16.046875 7.664062 16.246094 7.535156 16.472656 7.441406 C 16.695312 7.347656 16.929688 7.304688 17.171875 7.304688 C 17.414062 7.304688 17.648438 7.347656 17.875 7.441406 C 18.097656 7.535156 18.296875 7.664062 18.46875 7.835938 C 18.640625 8.003906 18.773438 8.199219 18.867188 8.421875 C 18.957031 8.644531 19.003906 8.875 19.003906 9.117188 Z M 19.003906 9.117188 " fill-opacity="1" fill-rule="nonzero"/><g clip-path="url(#2befa3aacb)"><path fill="#f7931a" d="M 15.289062 6.703125 L 15.613281 6.703125 L 15.613281 4.070312 L 32.800781 4.070312 L 32.800781 15.226562 L 20.527344 15.226562 L 20.527344 15.546875 L 33.128906 15.546875 L 33.128906 3.75 L 15.289062 3.75 Z M 15.289062 6.703125 " fill-opacity="1" fill-rule="nonzero"/></g><path fill="#f7931a" d="M 10.519531 22.394531 C 10.519531 21.394531 9.699219 20.582031 8.683594 20.582031 C 7.671875 20.582031 6.851562 21.394531 6.851562 22.394531 C 6.851562 23.292969 7.515625 24.039062 8.386719 24.179688 L 8.984375 24.179688 C 9.855469 24.039062 10.519531 23.292969 10.519531 22.394531 Z M 10.519531 22.394531 " fill-opacity="1" fill-rule="nonzero"/><path fill="#f7931a" d="M 15.269531 24.183594 L 15.867188 24.183594 C 16.738281 24.039062 17.402344 23.292969 17.402344 22.394531 C 17.402344 21.394531 16.582031 20.582031 15.570312 20.582031 C 14.554688 20.582031 13.734375 21.394531 13.734375 22.394531 C 13.734375 23.292969 14.398438 24.039062 15.269531 24.183594 Z M 15.269531 24.183594 " fill-opacity="1" fill-rule="nonzero"/><g clip-path="url(#e16f11273f)"><path fill="#f7931a" d="M 6.480469 26.605469 L 6.480469 29.246094 L 10.886719 29.246094 L 10.886719 26.609375 C 10.9375 26.710938 10.984375 26.820312 11.035156 26.953125 C 11.210938 27.441406 11.371094 28.179688 11.429688 29.246094 L 12.824219 29.246094 C 12.898438 27.894531 13.132812 27.074219 13.367188 26.605469 L 13.367188 29.246094 L 17.773438 29.246094 L 17.773438 26.609375 C 17.820312 26.707031 17.867188 26.820312 17.917969 26.953125 C 18.097656 27.441406 18.253906 28.179688 18.3125 29.246094 L 19.707031 29.246094 C 19.78125 27.894531 20.019531 27.074219 20.25 26.605469 L 20.25 29.246094 L 24.65625 29.246094 L 24.65625 26.609375 C 24.703125 26.707031 24.753906 26.820312 24.800781 26.953125 C 24.980469 27.441406 25.136719 28.179688 25.195312 29.246094 L 26.5 29.246094 C 26.40625 27.421875 26.054688 26.332031 25.59375 25.640625 C 25.328125 25.238281 25.011719 24.980469 24.722656 24.839844 C 24.445312 24.699219 24.199219 24.667969 24.054688 24.667969 C 24.042969 24.664062 24.035156 24.664062 24.027344 24.664062 L 22.785156 24.664062 C 22.675781 24.679688 22.566406 24.6875 22.453125 24.6875 C 22.339844 24.6875 22.226562 24.679688 22.117188 24.664062 L 20.878906 24.664062 C 20.867188 24.664062 20.855469 24.664062 20.847656 24.667969 C 20.699219 24.667969 20.457031 24.699219 20.179688 24.839844 C 19.773438 25.039062 19.335938 25.460938 19.007812 26.1875 C 18.917969 25.980469 18.816406 25.800781 18.710938 25.640625 C 18.441406 25.238281 18.128906 24.980469 17.839844 24.839844 C 17.5625 24.699219 17.316406 24.667969 17.171875 24.667969 C 17.160156 24.664062 17.152344 24.664062 17.140625 24.664062 L 13.996094 24.664062 C 13.984375 24.664062 13.972656 24.664062 13.960938 24.667969 C 13.816406 24.667969 13.570312 24.699219 13.296875 24.839844 C 12.886719 25.039062 12.449219 25.460938 12.125 26.1875 C 12.03125 25.980469 11.933594 25.800781 11.828125 25.640625 C 11.558594 25.238281 11.246094 24.980469 10.957031 24.839844 C 10.679688 24.699219 10.433594 24.667969 10.289062 24.667969 C 10.277344 24.664062 10.269531 24.664062 10.257812 24.664062 L 7.113281 24.664062 C 7.101562 24.664062 7.089844 24.664062 7.078125 24.667969 C 6.933594 24.667969 6.6875 24.699219 6.414062 24.839844 C 5.972656 25.054688 5.503906 25.523438 5.171875 26.355469 C 4.902344 27.03125 4.703125 27.953125 4.636719 29.246094 L 5.941406 29.246094 C 6.015625 27.894531 6.25 27.074219 6.480469 26.605469 Z M 6.480469 26.605469 " fill-opacity="1" fill-rule="nonzero"/></g><path fill="#f7931a" d="M 24.285156 22.394531 C 24.285156 22.632812 24.238281 22.867188 24.144531 23.085938 C 24.050781 23.308594 23.921875 23.503906 23.75 23.675781 C 23.578125 23.84375 23.378906 23.976562 23.152344 24.066406 C 22.929688 24.160156 22.695312 24.207031 22.453125 24.207031 C 22.210938 24.207031 21.976562 24.160156 21.75 24.066406 C 21.527344 23.976562 21.328125 23.84375 21.15625 23.675781 C 20.984375 23.503906 20.851562 23.308594 20.757812 23.085938 C 20.664062 22.867188 20.621094 22.632812 20.621094 22.394531 C 20.621094 22.152344 20.664062 21.921875 20.757812 21.699219 C 20.851562 21.476562 20.984375 21.28125 21.15625 21.113281 C 21.328125 20.941406 21.527344 20.8125 21.75 20.71875 C 21.976562 20.628906 22.210938 20.582031 22.453125 20.582031 C 22.695312 20.582031 22.929688 20.628906 23.152344 20.71875 C 23.378906 20.8125 23.578125 20.941406 23.75 21.113281 C 23.921875 21.28125 24.050781 21.476562 24.144531 21.699219 C 24.238281 21.921875 24.285156 22.152344 24.285156 22.394531 Z M 24.285156 22.394531 " fill-opacity="1" fill-rule="nonzero"/><path fill="#f7931a" d="M 21.097656 6.558594 L 22.972656 6.558594 L 22.972656 6.878906 L 21.097656 6.878906 Z M 21.097656 6.558594 " fill-opacity="1" fill-rule="nonzero"/><path fill="#f7931a" d="M 28.054688 5.53125 L 29.929688 5.53125 L 29.929688 5.855469 L 28.054688 5.855469 Z M 28.054688 5.53125 " fill-opacity="1" fill-rule="nonzero"/><path fill="#f7931a" d="M 16.488281 4.820312 L 20.074219 4.820312 L 20.074219 5.144531 L 16.488281 5.144531 Z M 16.488281 4.820312 " fill-opacity="1" fill-rule="nonzero"/><path fill="#f7931a" d="M 16.488281 5.585938 L 18.695312 5.585938 L 18.695312 5.910156 L 16.488281 5.910156 Z M 16.488281 5.585938 " fill-opacity="1" fill-rule="nonzero"/><path fill="#f7931a" d="M 22.070312 7.0625 L 21.921875 7.128906 L 22.484375 8.382812 L 24.195312 8.382812 L 24.195312 8.222656 L 22.589844 8.222656 Z M 22.070312 7.0625 " fill-opacity="1" fill-rule="nonzero"/><path fill="#f7931a" d="M 27.300781 7 L 28.550781 7 L 29.082031 6.117188 L 28.945312 6.035156 L 28.457031 6.839844 L 27.300781 6.839844 Z M 27.300781 7 " fill-opacity="1" fill-rule="nonzero"/><path fill="#f7931a" d="M 29.542969 7.867188 L 31.417969 7.867188 L 31.417969 8.1875 L 29.542969 8.1875 Z M 29.542969 7.867188 " fill-opacity="1" fill-rule="nonzero"/><path fill="#f7931a" d="M 29.945312 9.175781 L 28.199219 9.175781 L 28.199219 9.335938 L 30.039062 9.335938 L 30.570312 8.453125 L 30.429688 8.371094 Z M 29.945312 9.175781 " fill-opacity="1" fill-rule="nonzero"/><path fill="#f7931a" d="M 29.027344 12.453125 L 30.902344 12.453125 L 30.902344 12.773438 L 29.027344 12.773438 Z M 29.027344 12.453125 " fill-opacity="1" fill-rule="nonzero"/><path fill="#f7931a" d="M 27.683594 11.464844 L 29.429688 11.464844 L 29.914062 12.269531 L 30.054688 12.1875 L 29.523438 11.304688 L 27.683594 11.304688 Z M 27.683594 11.464844 " fill-opacity="1" fill-rule="nonzero"/><path fill="#f7931a" d="M 21.546875 14.027344 L 23.417969 14.027344 L 23.417969 14.351562 L 21.546875 14.351562 Z M 21.546875 14.027344 " fill-opacity="1" fill-rule="nonzero"/><path fill="#f7931a" d="M 24.765625 12.882812 L 22.925781 12.882812 L 22.390625 13.765625 L 22.53125 13.847656 L 23.019531 13.042969 L 24.765625 13.042969 Z M 24.765625 12.882812 " fill-opacity="1" fill-rule="nonzero"/><path stroke-linecap="butt" transform="matrix(0.166667, 0, 0, 0.166667, 1.533629, 32.416666)" fill="none" stroke-linejoin="miter" d="M 3.524789 8.539072 L 3.524789 2.609381 L 2.141975 2.609381 L 2.141975 8.539072 C 2.141975 9.968761 3.173226 11.000011 4.579477 11.000011 L 16.298235 11.000011 L 16.298235 9.617198 L 4.579477 9.617198 C 3.970102 9.617198 3.524789 9.148448 3.524789 8.539072 Z M 18.220111 11.000011 L 29.493556 11.000011 L 29.493556 9.617198 L 24.54824 9.617198 L 24.54824 3.992194 L 29.493556 3.992194 L 29.493556 2.609381 L 18.220111 2.609381 L 18.220111 3.992194 L 23.165427 3.992194 L 23.165427 9.617198 L 18.220111 9.617198 Z M 32.798246 8.539072 L 32.798246 5.046882 C 32.798246 4.437507 33.266996 3.992194 33.852934 3.992194 L 45.571692 3.992194 L 45.571692 2.609381 L 33.852934 2.609381 C 32.446683 2.609381 31.415433 3.640631 31.415433 5.046882 L 31.415433 8.539072 C 31.415433 9.968761 32.446683 11.000011 33.852934 11.000011 L 45.571692 11.000011 L 45.571692 9.617198 L 33.852934 9.617198 C 33.266996 9.617198 32.798246 9.148448 32.798246 8.539072 Z M 47.493568 5.046882 L 47.493568 8.539072 C 47.493568 9.968761 48.524819 11.000011 49.93107 11.000011 L 61.649828 11.000011 L 61.649828 9.617198 L 49.93107 9.617198 C 49.345132 9.617198 48.876382 9.148448 48.876382 8.539072 L 48.876382 7.484384 L 61.649828 7.484384 L 61.649828 6.10157 L 48.876382 6.10157 L 48.876382 5.046882 C 48.876382 4.437507 49.345132 3.992194 49.93107 3.992194 L 61.649828 3.992194 L 61.649828 2.609381 L 49.93107 2.609381 C 48.524819 2.609381 47.493568 3.640631 47.493568 5.046882 Z M 76.34515 5.046882 L 76.34515 11.000011 L 77.727964 11.000011 L 77.727964 5.046882 C 77.727964 3.640631 76.696713 2.609381 75.290462 2.609381 L 66.009206 2.609381 C 64.602955 2.609381 63.571704 3.640631 63.571704 5.046882 L 63.571704 11.000011 L 64.954518 11.000011 L 64.954518 5.046882 C 64.954518 4.437507 65.423268 3.992194 66.009206 3.992194 L 75.290462 3.992194 C 75.8764 3.992194 76.34515 4.437507 76.34515 5.046882 Z M 81.056091 8.539072 L 81.056091 5.046882 C 81.056091 4.437507 81.501404 3.992194 82.110779 3.992194 L 93.806099 3.992194 L 93.806099 2.609381 L 82.110779 2.609381 C 80.681091 2.609381 79.64984 3.640631 79.64984 5.046882 L 79.64984 8.539072 C 79.64984 9.968761 80.681091 11.000011 82.110779 11.000011 L 93.806099 11.000011 L 93.806099 9.617198 L 82.110779 9.617198 C 81.501404 9.617198 81.056091 9.148448 81.056091 8.539072 Z M 95.727976 11.000011 L 107.001421 11.000011 L 107.001421 9.617198 L 102.056105 9.617198 L 102.056105 3.992194 L 107.001421 3.992194 L 107.001421 2.609381 L 95.727976 2.609381 L 95.727976 3.992194 L 100.673291 3.992194 L 100.673291 9.617198 L 95.727976 9.617198 Z M 121.696743 5.046882 L 121.696743 6.10157 L 110.329548 6.10157 L 110.329548 5.046882 C 110.329548 4.437507 110.774861 3.992194 111.384236 3.992194 L 120.642055 3.992194 C 121.25143 3.992194 121.696743 4.437507 121.696743 5.046882 Z M 108.923297 11.000011 L 110.329548 11.000011 L 110.329548 7.484384 L 121.696743 7.484384 L 121.696743 11.000011 L 123.102994 11.000011 L 123.102994 5.046882 C 123.102994 3.640631 122.071743 2.609381 120.642055 2.609381 L 111.384236 2.609381 C 109.954548 2.609381 108.923297 3.640631 108.923297 5.046882 Z M 131.868625 11.000011 L 133.274876 11.000011 L 133.274876 3.992194 L 140.142068 3.992194 L 140.142068 2.609381 L 125.02487 2.609381 L 125.02487 3.992194 L 131.868625 3.992194 Z M 154.813953 2.609381 L 154.813953 8.539072 C 154.813953 9.148448 154.36864 9.617198 153.759265 9.617198 L 144.501446 9.617198 C 143.89207 9.617198 143.446758 9.148448 143.446758 8.539072 L 143.446758 2.609381 L 142.063944 2.609381 L 142.063944 8.539072 C 142.063944 9.968761 143.095195 11.000011 144.501446 11.000011 L 153.759265 11.000011 C 155.188953 11.000011 156.220204 9.968761 156.220204 8.539072 L 156.220204 2.609381 Z M 158.14208 11.000011 L 159.524893 11.000011 L 159.524893 7.484384 L 168.103024 7.484384 C 169.720213 7.484384 170.892089 8.679697 170.892089 10.296886 L 170.892089 11.000011 L 172.298339 11.000011 L 172.298339 10.296886 C 172.298339 9.03126 171.829589 7.953134 171.032714 7.226571 C 171.806152 6.828133 172.298339 6.00782 172.298339 5.046882 C 172.298339 3.640631 171.267089 2.609381 169.8374 2.609381 L 158.14208 2.609381 Z M 159.524893 6.10157 L 159.524893 3.992194 L 169.8374 3.992194 C 170.446776 3.992194 170.892089 4.437507 170.892089 5.046882 C 170.892089 5.656258 170.446776 6.10157 169.8374 6.10157 Z M 186.970224 5.046882 L 186.970224 6.10157 L 175.603029 6.10157 L 175.603029 5.046882 C 175.603029 4.437507 176.048342 3.992194 176.657717 3.992194 L 185.915536 3.992194 C 186.524912 3.992194 186.970224 4.437507 186.970224 5.046882 Z M 174.220216 11.000011 L 175.603029 11.000011 L 175.603029 7.484384 L 186.970224 7.484384 L 186.970224 11.000011 L 188.376475 11.000011 L 188.376475 5.046882 C 188.376475 3.640631 187.345225 2.609381 185.915536 2.609381 L 176.657717 2.609381 C 175.251466 2.609381 174.220216 3.640631 174.220216 5.046882 Z M 201.993672 6.10157 L 192.735853 6.10157 C 192.149915 6.10157 191.681165 5.656258 191.681165 5.046882 C 191.681165 4.437507 192.149915 3.992194 192.735853 3.992194 L 204.103048 3.992194 L 204.103048 2.609381 L 192.735853 2.609381 C 191.329602 2.609381 190.298352 3.640631 190.298352 5.046882 C 190.298352 6.453133 191.329602 7.484384 192.735853 7.484384 L 201.993672 7.484384 C 202.603047 7.484384 203.071798 7.953134 203.071798 8.539072 C 203.071798 9.148448 202.603047 9.617198 201.993672 9.617198 L 190.649914 9.617198 L 190.649914 11.000011 L 201.993672 11.000011 C 203.42336 11.000011 204.454611 9.968761 204.454611 8.539072 C 204.454611 7.132821 203.42336 6.10157 201.993672 6.10157 Z M 201.993672 6.10157 " stroke="#808080" stroke-width="0.9" stroke-opacity="1" stroke-miterlimit="4"/><g fill="#f7931a" fill-opacity="1"><g transform="translate(1.728942, 34.249998)"><g><path d="M 0.390625 -0.40625 L 0.390625 -1.398438 L 0.160156 -1.398438 L 0.160156 -0.40625 C 0.160156 -0.171875 0.332031 0 0.566406 0 L 2.519531 0 L 2.519531 -0.230469 L 0.566406 -0.230469 C 0.46875 -0.230469 0.390625 -0.308594 0.390625 -0.40625 Z M 0.390625 -0.40625 "/></g></g></g><g fill="#f7931a" fill-opacity="1"><g transform="translate(4.408958, 34.249998)"><g><path d="M 0.160156 0 L 2.039062 0 L 2.039062 -0.230469 L 1.214844 -0.230469 L 1.214844 -1.167969 L 2.039062 -1.167969 L 2.039062 -1.398438 L 0.160156 -1.398438 L 0.160156 -1.167969 L 0.984375 -1.167969 L 0.984375 -0.230469 L 0.160156 -0.230469 Z M 0.160156 0 "/></g></g></g><g fill="#f7931a" fill-opacity="1"><g transform="translate(6.608971, 34.249998)"><g><path d="M 0.390625 -0.40625 L 0.390625 -0.992188 C 0.390625 -1.09375 0.46875 -1.167969 0.566406 -1.167969 L 2.519531 -1.167969 L 2.519531 -1.398438 L 0.566406 -1.398438 C 0.332031 -1.398438 0.160156 -1.226562 0.160156 -0.992188 L 0.160156 -0.40625 C 0.160156 -0.171875 0.332031 0 0.566406 0 L 2.519531 0 L 2.519531 -0.230469 L 0.566406 -0.230469 C 0.46875 -0.230469 0.390625 -0.308594 0.390625 -0.40625 Z M 0.390625 -0.40625 "/></g></g></g><g fill="#f7931a" fill-opacity="1"><g transform="translate(9.288988, 34.249998)"><g><path d="M 0.160156 -0.992188 L 0.160156 -0.40625 C 0.160156 -0.171875 0.332031 0 0.566406 0 L 2.519531 0 L 2.519531 -0.230469 L 0.566406 -0.230469 C 0.46875 -0.230469 0.390625 -0.308594 0.390625 -0.40625 L 0.390625 -0.585938 L 2.519531 -0.585938 L 2.519531 -0.816406 L 0.390625 -0.816406 L 0.390625 -0.992188 C 0.390625 -1.09375 0.46875 -1.167969 0.566406 -1.167969 L 2.519531 -1.167969 L 2.519531 -1.398438 L 0.566406 -1.398438 C 0.332031 -1.398438 0.160156 -1.226562 0.160156 -0.992188 Z M 0.160156 -0.992188 "/></g></g></g><g fill="#f7931a" fill-opacity="1"><g transform="translate(11.969004, 34.249998)"><g><path d="M 2.289062 -0.992188 L 2.289062 0 L 2.519531 0 L 2.519531 -0.992188 C 2.519531 -1.226562 2.347656 -1.398438 2.113281 -1.398438 L 0.566406 -1.398438 C 0.332031 -1.398438 0.160156 -1.226562 0.160156 -0.992188 L 0.160156 0 L 0.390625 0 L 0.390625 -0.992188 C 0.390625 -1.09375 0.46875 -1.167969 0.566406 -1.167969 L 2.113281 -1.167969 C 2.210938 -1.167969 2.289062 -1.09375 2.289062 -0.992188 Z M 2.289062 -0.992188 "/></g></g></g><g fill="#f7931a" fill-opacity="1"><g transform="translate(14.64902, 34.249998)"><g><path d="M 0.390625 -0.40625 L 0.390625 -0.992188 C 0.390625 -1.09375 0.46875 -1.167969 0.566406 -1.167969 L 2.519531 -1.167969 L 2.519531 -1.398438 L 0.566406 -1.398438 C 0.332031 -1.398438 0.160156 -1.226562 0.160156 -0.992188 L 0.160156 -0.40625 C 0.160156 -0.171875 0.332031 0 0.566406 0 L 2.519531 0 L 2.519531 -0.230469 L 0.566406 -0.230469 C 0.46875 -0.230469 0.390625 -0.308594 0.390625 -0.40625 Z M 0.390625 -0.40625 "/></g></g></g><g fill="#f7931a" fill-opacity="1"><g transform="translate(17.329036, 34.249998)"><g><path d="M 0.160156 0 L 2.039062 0 L 2.039062 -0.230469 L 1.214844 -0.230469 L 1.214844 -1.167969 L 2.039062 -1.167969 L 2.039062 -1.398438 L 0.160156 -1.398438 L 0.160156 -1.167969 L 0.984375 -1.167969 L 0.984375 -0.230469 L 0.160156 -0.230469 Z M 0.160156 0 "/></g></g></g><g fill="#f7931a" fill-opacity="1"><g transform="translate(19.52905, 34.249998)"><g><path d="M 2.289062 -0.992188 L 2.289062 -0.816406 L 0.390625 -0.816406 L 0.390625 -0.992188 C 0.390625 -1.09375 0.46875 -1.167969 0.566406 -1.167969 L 2.113281 -1.167969 C 2.210938 -1.167969 2.289062 -1.09375 2.289062 -0.992188 Z M 0.160156 0 L 0.390625 0 L 0.390625 -0.585938 L 2.289062 -0.585938 L 2.289062 0 L 2.519531 0 L 2.519531 -0.992188 C 2.519531 -1.226562 2.347656 -1.398438 2.113281 -1.398438 L 0.566406 -1.398438 C 0.332031 -1.398438 0.160156 -1.226562 0.160156 -0.992188 Z M 0.160156 0 "/></g></g></g><g fill="#f7931a" fill-opacity="1"><g transform="translate(22.209066, 34.249998)"><g><path d="M 1.304688 0 L 1.535156 0 L 1.535156 -1.167969 L 2.679688 -1.167969 L 2.679688 -1.398438 L 0.160156 -1.398438 L 0.160156 -1.167969 L 1.304688 -1.167969 Z M 1.304688 0 "/></g></g></g><g fill="#f7931a" fill-opacity="1"><g transform="translate(25.049083, 34.249998)"><g><path d="M 2.289062 -1.398438 L 2.289062 -0.40625 C 2.289062 -0.308594 2.210938 -0.230469 2.113281 -0.230469 L 0.566406 -0.230469 C 0.46875 -0.230469 0.390625 -0.308594 0.390625 -0.40625 L 0.390625 -1.398438 L 0.160156 -1.398438 L 0.160156 -0.40625 C 0.160156 -0.171875 0.332031 0 0.566406 0 L 2.113281 0 C 2.347656 0 2.519531 -0.171875 2.519531 -0.40625 L 2.519531 -1.398438 Z M 2.289062 -1.398438 "/></g></g></g><g fill="#f7931a" fill-opacity="1"><g transform="translate(27.7291, 34.249998)"><g><path d="M 0.160156 0 L 0.390625 0 L 0.390625 -0.585938 L 1.820312 -0.585938 C 2.089844 -0.585938 2.289062 -0.386719 2.289062 -0.117188 L 2.289062 0 L 2.519531 0 L 2.519531 -0.117188 C 2.519531 -0.324219 2.441406 -0.507812 2.308594 -0.628906 C 2.4375 -0.695312 2.519531 -0.828125 2.519531 -0.992188 C 2.519531 -1.226562 2.347656 -1.398438 2.113281 -1.398438 L 0.160156 -1.398438 Z M 0.390625 -0.816406 L 0.390625 -1.167969 L 2.113281 -1.167969 C 2.210938 -1.167969 2.289062 -1.09375 2.289062 -0.992188 C 2.289062 -0.890625 2.210938 -0.816406 2.113281 -0.816406 Z M 0.390625 -0.816406 "/></g></g></g><g fill="#f7931a" fill-opacity="1"><g transform="translate(30.409116, 34.249998)"><g><path d="M 2.289062 -0.992188 L 2.289062 -0.816406 L 0.390625 -0.816406 L 0.390625 -0.992188 C 0.390625 -1.09375 0.46875 -1.167969 0.566406 -1.167969 L 2.113281 -1.167969 C 2.210938 -1.167969 2.289062 -1.09375 2.289062 -0.992188 Z M 0.160156 0 L 0.390625 0 L 0.390625 -0.585938 L 2.289062 -0.585938 L 2.289062 0 L 2.519531 0 L 2.519531 -0.992188 C 2.519531 -1.226562 2.347656 -1.398438 2.113281 -1.398438 L 0.566406 -1.398438 C 0.332031 -1.398438 0.160156 -1.226562 0.160156 -0.992188 Z M 0.160156 0 "/></g></g></g><g fill="#f7931a" fill-opacity="1"><g transform="translate(33.089132, 34.249998)"><g><path d="M 2.113281 -0.816406 L 0.566406 -0.816406 C 0.46875 -0.816406 0.390625 -0.890625 0.390625 -0.992188 C 0.390625 -1.09375 0.46875 -1.167969 0.566406 -1.167969 L 2.460938 -1.167969 L 2.460938 -1.398438 L 0.566406 -1.398438 C 0.332031 -1.398438 0.160156 -1.226562 0.160156 -0.992188 C 0.160156 -0.757812 0.332031 -0.585938 0.566406 -0.585938 L 2.113281 -0.585938 C 2.210938 -0.585938 2.289062 -0.507812 2.289062 -0.40625 C 2.289062 -0.308594 2.210938 -0.230469 2.113281 -0.230469 L 0.21875 -0.230469 L 0.21875 0 L 2.113281 0 C 2.347656 0 2.519531 -0.171875 2.519531 -0.40625 C 2.519531 -0.644531 2.347656 -0.816406 2.113281 -0.816406 Z M 2.113281 -0.816406 "/></g></g></g></svg>