<svg xmlns="http://www.w3.org/2000/svg" xmlns:xlink="http://www.w3.org/1999/xlink" width="50" zoomAndPan="magnify" viewBox="0 0 37.5 37.499999" height="50" preserveAspectRatio="xMidYMid meet" version="1.0"><defs><g/><clipPath id="8114953a9d"><path d="M 0 0 L 37.007812 0 L 37.007812 37.007812 L 0 37.007812 Z M 0 0 " clip-rule="nonzero"/></clipPath><clipPath id="1a23e7f78e"><path d="M 12 7 L 25.90625 7 L 25.90625 31.390625 L 12 31.390625 Z M 12 7 " clip-rule="nonzero"/></clipPath><clipPath id="87df7e3762"><path d="M 16 2.140625 L 23 2.140625 L 23 8 L 16 8 Z M 16 2.140625 " clip-rule="nonzero"/></clipPath></defs><g clip-path="url(#8114953a9d)"><path fill="#ffffff" d="M 0 0 L 37.5 0 L 37.5 37.5 L 0 37.5 Z M 0 0 " fill-opacity="1" fill-rule="nonzero"/><path fill="#ffffff" d="M 0 0 L 37.5 0 L 37.5 37.5 L 0 37.5 Z M 0 0 " fill-opacity="1" fill-rule="nonzero"/></g><g clip-path="url(#1a23e7f78e)"><path fill="#f7931a" d="M 16.027344 20.277344 L 16.027344 17.730469 L 16.277344 17.835938 L 16.277344 29.851562 C 16.277344 30.691406 16.96875 31.375 17.820312 31.375 C 18.480469 31.375 19.042969 30.964844 19.261719 30.390625 C 19.328125 30.222656 19.363281 30.039062 19.363281 29.851562 L 19.363281 18.730469 L 19.941406 18.730469 L 19.941406 29.851562 C 19.941406 30.691406 20.632812 31.375 21.484375 31.375 C 22.335938 31.375 23.027344 30.691406 23.027344 29.851562 L 23.027344 11.375 C 23.460938 12.25 23.902344 13.921875 23.898438 16.90625 C 23.898438 17.585938 23.875 18.332031 23.824219 19.152344 C 23.792969 19.695312 24.214844 20.160156 24.765625 20.191406 C 24.785156 20.195312 24.804688 20.195312 24.824219 20.195312 C 25.347656 20.195312 25.789062 19.789062 25.820312 19.265625 C 25.871094 18.414062 25.894531 17.628906 25.894531 16.90625 C 25.890625 14.117188 25.546875 12.265625 25.035156 10.988281 C 24.527344 9.714844 23.804688 8.996094 23.132812 8.667969 C 22.707031 8.457031 22.332031 8.40625 22.109375 8.40625 C 22.09375 8.40625 22.078125 8.402344 22.0625 8.402344 L 18.75 8.402344 C 18.75 8.429688 18.75 8.460938 18.75 8.503906 C 18.75 8.984375 18.695312 10.414062 18.074219 12.046875 L 17.382812 11.757812 C 17.949219 10.253906 18.003906 8.925781 18 8.503906 C 18 8.457031 18 8.425781 18 8.402344 L 17.242188 8.402344 C 17.183594 8.402344 17.125 8.410156 17.066406 8.417969 L 17.066406 8.421875 C 16.683594 8.464844 16.347656 8.613281 16.054688 8.804688 C 15.710938 9.03125 15.414062 9.328125 15.15625 9.679688 C 14.644531 10.378906 14.292969 11.308594 14.289062 12.367188 C 14.289062 13.160156 14.5 14.019531 14.984375 14.84375 C 15.472656 15.671875 16.222656 16.457031 17.277344 17.152344 C 17.449219 17.261719 17.640625 17.316406 17.832031 17.316406 C 18.152344 17.316406 18.46875 17.164062 18.664062 16.878906 C 18.96875 16.429688 18.847656 15.816406 18.386719 15.511719 C 17.542969 14.953125 17.023438 14.382812 16.710938 13.855469 C 16.402344 13.324219 16.289062 12.828125 16.285156 12.367188 C 16.285156 11.941406 16.390625 11.539062 16.550781 11.207031 C 16.707031 10.875 16.925781 10.621094 17.097656 10.488281 C 17.152344 10.445312 17.199219 10.421875 17.230469 10.402344 L 17.253906 10.679688 C 17.125 10.78125 16.925781 11.003906 16.777344 11.3125 C 16.617188 11.640625 16.535156 12.003906 16.535156 12.367188 C 16.535156 12.609375 16.570312 12.847656 16.640625 13.078125 L 17.085938 12.035156 L 20.953125 13.644531 L 18.875 18.515625 L 15.007812 16.90625 L 15.441406 15.894531 C 15.183594 15.597656 14.957031 15.289062 14.769531 14.96875 C 14.292969 14.160156 14.039062 13.257812 14.039062 12.367188 C 14.042969 11.347656 14.367188 10.339844 14.953125 9.535156 C 15.238281 9.148438 15.5625 8.832031 15.917969 8.597656 C 16.273438 8.367188 16.683594 8.21875 17.046875 8.171875 C 17.113281 8.164062 17.175781 8.15625 17.242188 8.15625 L 19.066406 8.15625 C 18.40625 8.019531 17.269531 7.804688 16.539062 7.816406 C 16.347656 7.816406 16.1875 7.835938 16.066406 7.871094 C 15.273438 8.117188 13.070312 9.597656 12.257812 13.96875 C 11.648438 17.257812 14.160156 19.832031 16.027344 20.277344 Z M 16.027344 20.277344 " fill-opacity="1" fill-rule="nonzero"/></g><g clip-path="url(#87df7e3762)"><path fill="#f7931a" d="M 22.460938 4.929688 C 22.460938 5.296875 22.390625 5.652344 22.246094 5.988281 C 22.105469 6.328125 21.902344 6.628906 21.636719 6.890625 C 21.375 7.148438 21.070312 7.347656 20.726562 7.488281 C 20.382812 7.628906 20.023438 7.699219 19.652344 7.699219 C 19.28125 7.699219 18.921875 7.628906 18.578125 7.488281 C 18.234375 7.347656 17.929688 7.148438 17.667969 6.890625 C 17.40625 6.628906 17.203125 6.328125 17.058594 5.988281 C 16.917969 5.652344 16.84375 5.296875 16.84375 4.929688 C 16.84375 4.5625 16.917969 4.207031 17.058594 3.867188 C 17.203125 3.527344 17.40625 3.230469 17.667969 2.96875 C 17.929688 2.710938 18.234375 2.507812 18.578125 2.367188 C 18.921875 2.226562 19.28125 2.15625 19.652344 2.15625 C 20.023438 2.15625 20.382812 2.226562 20.726562 2.367188 C 21.070312 2.507812 21.375 2.710938 21.636719 2.96875 C 21.902344 3.230469 22.105469 3.527344 22.246094 3.867188 C 22.390625 4.207031 22.460938 4.5625 22.460938 4.929688 Z M 22.460938 4.929688 " fill-opacity="1" fill-rule="nonzero"/></g><path fill="#f7931a" d="M 17.269531 13.328125 L 17.382812 13.066406 L 20 14.152344 L 19.886719 14.414062 Z M 17.269531 13.328125 " fill-opacity="1" fill-rule="nonzero"/><path fill="#f7931a" d="M 17.046875 13.859375 L 17.160156 13.59375 L 19.773438 14.679688 L 19.664062 14.941406 Z M 17.046875 13.859375 " fill-opacity="1" fill-rule="nonzero"/><path stroke-linecap="butt" transform="matrix(0.166667, 0, 0, 0.166667, 1.983629, 33.549996)" fill="none" stroke-linejoin="miter" d="M 6.027917 10.996907 L 17.723237 10.996907 C 19.152926 10.996907 20.184176 9.965656 20.184176 8.559405 C 20.184176 7.85628 19.926364 7.223467 19.481051 6.801592 C 19.926364 6.379716 20.184176 5.746903 20.184176 5.043778 C 20.184176 3.637527 19.152926 2.606276 17.723237 2.606276 L 6.027917 2.606276 Z M 7.41073 9.614093 L 7.41073 7.504717 L 17.723237 7.504717 C 18.332613 7.504717 18.801363 7.95003 18.801363 8.559405 C 18.801363 9.145343 18.332613 9.614093 17.723237 9.614093 Z M 7.41073 6.098466 L 7.41073 3.98909 L 17.723237 3.98909 C 18.332613 3.98909 18.801363 4.45784 18.801363 5.043778 C 18.801363 5.653153 18.332613 6.098466 17.723237 6.098466 Z M 34.879499 5.043778 L 34.879499 6.098466 L 23.488866 6.098466 L 23.488866 5.043778 C 23.488866 4.45784 23.957616 3.98909 24.543554 3.98909 L 33.82481 3.98909 C 34.410748 3.98909 34.879499 4.45784 34.879499 5.043778 Z M 22.106053 10.996907 L 23.488866 10.996907 L 23.488866 7.504717 L 34.879499 7.504717 L 34.879499 10.996907 L 36.262312 10.996907 L 36.262312 5.043778 C 36.262312 3.637527 35.231061 2.606276 33.82481 2.606276 L 24.543554 2.606276 C 23.137303 2.606276 22.106053 3.637527 22.106053 5.043778 Z M 39.567002 8.559405 L 39.567002 5.043778 C 39.567002 4.45784 40.035752 3.98909 40.62169 3.98909 L 52.340448 3.98909 L 52.340448 2.606276 L 40.62169 2.606276 C 39.215439 2.606276 38.184188 3.637527 38.184188 5.043778 L 38.184188 8.559405 C 38.184188 9.965656 39.215439 10.996907 40.62169 10.996907 L 52.340448 10.996907 L 52.340448 9.614093 L 40.62169 9.614093 C 40.035752 9.614093 39.567002 9.145343 39.567002 8.559405 Z M 54.262324 10.996907 L 55.645138 10.996907 L 55.645138 7.504717 L 67.03577 7.504717 L 67.03577 10.996907 L 68.418584 10.996907 L 68.418584 2.606276 L 67.03577 2.606276 L 67.03577 6.098466 L 55.645138 6.098466 L 55.645138 2.606276 L 54.262324 2.606276 Z M 70.34046 10.996907 L 81.613905 10.996907 L 81.613905 9.614093 L 76.668589 9.614093 L 76.668589 3.98909 L 81.613905 3.98909 L 81.613905 2.606276 L 70.34046 2.606276 L 70.34046 3.98909 L 75.285776 3.98909 L 75.285776 9.614093 L 70.34046 9.614093 Z M 84.942032 8.559405 L 84.942032 2.606276 L 83.535781 2.606276 L 83.535781 8.559405 C 83.535781 9.965656 84.567032 10.996907 85.99672 10.996907 L 97.692041 10.996907 L 97.692041 9.614093 L 85.99672 9.614093 C 85.387345 9.614093 84.942032 9.145343 84.942032 8.559405 Z M 101.020168 8.559405 L 101.020168 2.606276 L 99.613917 2.606276 L 99.613917 8.559405 C 99.613917 9.965656 100.645168 10.996907 102.074856 10.996907 L 113.793614 10.996907 L 113.793614 9.614093 L 102.074856 9.614093 C 101.465481 9.614093 101.020168 9.145343 101.020168 8.559405 Z M 115.71549 5.043778 L 115.71549 8.559405 C 115.71549 9.965656 116.746741 10.996907 118.152992 10.996907 L 129.87175 10.996907 L 129.87175 9.614093 L 118.152992 9.614093 C 117.543617 9.614093 117.098304 9.145343 117.098304 8.559405 L 117.098304 7.504717 L 129.87175 7.504717 L 129.87175 6.098466 L 117.098304 6.098466 L 117.098304 5.043778 C 117.098304 4.45784 117.543617 3.98909 118.152992 3.98909 L 129.87175 3.98909 L 129.87175 2.606276 L 118.152992 2.606276 C 116.746741 2.606276 115.71549 3.637527 115.71549 5.043778 Z M 131.793626 10.996907 L 133.17644 10.996907 L 133.17644 7.504717 L 141.731133 7.504717 C 143.371759 7.504717 144.543635 8.676593 144.543635 10.293781 L 144.543635 10.996907 L 145.949886 10.996907 L 145.949886 10.293781 C 145.949886 9.051593 145.481135 7.973467 144.68426 7.223467 C 145.457698 6.825029 145.949886 6.028154 145.949886 5.043778 C 145.949886 3.637527 144.918635 2.606276 143.488946 2.606276 L 131.793626 2.606276 Z M 133.17644 6.098466 L 133.17644 3.98909 L 143.488946 3.98909 C 144.098322 3.98909 144.543635 4.45784 144.543635 5.043778 C 144.543635 5.653153 144.098322 6.098466 143.488946 6.098466 Z M 160.62177 5.043778 L 160.62177 6.098466 L 149.254575 6.098466 L 149.254575 5.043778 C 149.254575 4.45784 149.699888 3.98909 150.309264 3.98909 L 159.567082 3.98909 C 160.176458 3.98909 160.62177 4.45784 160.62177 5.043778 Z M 147.871762 10.996907 L 149.254575 10.996907 L 149.254575 7.504717 L 160.62177 7.504717 L 160.62177 10.996907 L 162.028021 10.996907 L 162.028021 5.043778 C 162.028021 3.637527 160.996771 2.606276 159.567082 2.606276 L 150.309264 2.606276 C 148.903013 2.606276 147.871762 3.637527 147.871762 5.043778 Z M 170.81709 10.996907 L 172.199903 10.996907 L 172.199903 3.98909 L 179.067095 3.98909 L 179.067095 2.606276 L 163.949898 2.606276 L 163.949898 3.98909 L 170.81709 3.98909 Z M 192.684292 2.606276 L 183.426473 2.606276 C 182.020222 2.606276 180.988972 3.637527 180.988972 5.043778 L 180.988972 8.559405 C 180.988972 9.965656 182.020222 10.996907 183.426473 10.996907 L 192.684292 10.996907 C 194.11398 10.996907 195.145231 9.965656 195.145231 8.559405 L 195.145231 5.043778 C 195.145231 3.637527 194.11398 2.606276 192.684292 2.606276 Z M 182.371785 8.559405 L 182.371785 5.043778 C 182.371785 4.45784 182.840535 3.98909 183.426473 3.98909 L 192.684292 3.98909 C 193.293667 3.98909 193.762418 4.45784 193.762418 5.043778 L 193.762418 8.559405 C 193.762418 9.145343 193.293667 9.614093 192.684292 9.614093 L 183.426473 9.614093 C 182.840535 9.614093 182.371785 9.145343 182.371785 8.559405 Z M 182.371785 8.559405 " stroke="#808080" stroke-width="0.9" stroke-opacity="1" stroke-miterlimit="4"/><g fill="#f7931a" fill-opacity="1"><g transform="translate(2.827379, 35.383328)"><g><path d="M 0.160156 0 L 2.113281 0 C 2.347656 0 2.519531 -0.171875 2.519531 -0.40625 C 2.519531 -0.527344 2.476562 -0.628906 2.402344 -0.699219 C 2.476562 -0.773438 2.519531 -0.875 2.519531 -0.992188 C 2.519531 -1.226562 2.347656 -1.398438 2.113281 -1.398438 L 0.160156 -1.398438 Z M 0.390625 -0.230469 L 0.390625 -0.585938 L 2.113281 -0.585938 C 2.210938 -0.585938 2.289062 -0.507812 2.289062 -0.40625 C 2.289062 -0.308594 2.210938 -0.230469 2.113281 -0.230469 Z M 0.390625 -0.816406 L 0.390625 -1.167969 L 2.113281 -1.167969 C 2.210938 -1.167969 2.289062 -1.09375 2.289062 -0.992188 C 2.289062 -0.890625 2.210938 -0.816406 2.113281 -0.816406 Z M 0.390625 -0.816406 "/></g></g></g><g fill="#f7931a" fill-opacity="1"><g transform="translate(5.507395, 35.383328)"><g><path d="M 2.289062 -0.992188 L 2.289062 -0.816406 L 0.390625 -0.816406 L 0.390625 -0.992188 C 0.390625 -1.09375 0.46875 -1.167969 0.566406 -1.167969 L 2.113281 -1.167969 C 2.210938 -1.167969 2.289062 -1.09375 2.289062 -0.992188 Z M 0.160156 0 L 0.390625 0 L 0.390625 -0.585938 L 2.289062 -0.585938 L 2.289062 0 L 2.519531 0 L 2.519531 -0.992188 C 2.519531 -1.226562 2.347656 -1.398438 2.113281 -1.398438 L 0.566406 -1.398438 C 0.332031 -1.398438 0.160156 -1.226562 0.160156 -0.992188 Z M 0.160156 0 "/></g></g></g><g fill="#f7931a" fill-opacity="1"><g transform="translate(8.187411, 35.383328)"><g><path d="M 0.390625 -0.40625 L 0.390625 -0.992188 C 0.390625 -1.09375 0.46875 -1.167969 0.566406 -1.167969 L 2.519531 -1.167969 L 2.519531 -1.398438 L 0.566406 -1.398438 C 0.332031 -1.398438 0.160156 -1.226562 0.160156 -0.992188 L 0.160156 -0.40625 C 0.160156 -0.171875 0.332031 0 0.566406 0 L 2.519531 0 L 2.519531 -0.230469 L 0.566406 -0.230469 C 0.46875 -0.230469 0.390625 -0.308594 0.390625 -0.40625 Z M 0.390625 -0.40625 "/></g></g></g><g fill="#f7931a" fill-opacity="1"><g transform="translate(10.867427, 35.383328)"><g><path d="M 0.160156 0 L 0.390625 0 L 0.390625 -0.585938 L 2.289062 -0.585938 L 2.289062 0 L 2.519531 0 L 2.519531 -1.398438 L 2.289062 -1.398438 L 2.289062 -0.816406 L 0.390625 -0.816406 L 0.390625 -1.398438 L 0.160156 -1.398438 Z M 0.160156 0 "/></g></g></g><g fill="#f7931a" fill-opacity="1"><g transform="translate(13.547444, 35.383328)"><g><path d="M 0.160156 0 L 2.039062 0 L 2.039062 -0.230469 L 1.214844 -0.230469 L 1.214844 -1.167969 L 2.039062 -1.167969 L 2.039062 -1.398438 L 0.160156 -1.398438 L 0.160156 -1.167969 L 0.984375 -1.167969 L 0.984375 -0.230469 L 0.160156 -0.230469 Z M 0.160156 0 "/></g></g></g><g fill="#f7931a" fill-opacity="1"><g transform="translate(15.747457, 35.383328)"><g><path d="M 0.390625 -0.40625 L 0.390625 -1.398438 L 0.160156 -1.398438 L 0.160156 -0.40625 C 0.160156 -0.171875 0.332031 0 0.566406 0 L 2.519531 0 L 2.519531 -0.230469 L 0.566406 -0.230469 C 0.46875 -0.230469 0.390625 -0.308594 0.390625 -0.40625 Z M 0.390625 -0.40625 "/></g></g></g><g fill="#f7931a" fill-opacity="1"><g transform="translate(18.427473, 35.383328)"><g><path d="M 0.390625 -0.40625 L 0.390625 -1.398438 L 0.160156 -1.398438 L 0.160156 -0.40625 C 0.160156 -0.171875 0.332031 0 0.566406 0 L 2.519531 0 L 2.519531 -0.230469 L 0.566406 -0.230469 C 0.46875 -0.230469 0.390625 -0.308594 0.390625 -0.40625 Z M 0.390625 -0.40625 "/></g></g></g><g fill="#f7931a" fill-opacity="1"><g transform="translate(21.10749, 35.383328)"><g><path d="M 0.160156 -0.992188 L 0.160156 -0.40625 C 0.160156 -0.171875 0.332031 0 0.566406 0 L 2.519531 0 L 2.519531 -0.230469 L 0.566406 -0.230469 C 0.46875 -0.230469 0.390625 -0.308594 0.390625 -0.40625 L 0.390625 -0.585938 L 2.519531 -0.585938 L 2.519531 -0.816406 L 0.390625 -0.816406 L 0.390625 -0.992188 C 0.390625 -1.09375 0.46875 -1.167969 0.566406 -1.167969 L 2.519531 -1.167969 L 2.519531 -1.398438 L 0.566406 -1.398438 C 0.332031 -1.398438 0.160156 -1.226562 0.160156 -0.992188 Z M 0.160156 -0.992188 "/></g></g></g><g fill="#f7931a" fill-opacity="1"><g transform="translate(23.787506, 35.383328)"><g><path d="M 0.160156 0 L 0.390625 0 L 0.390625 -0.585938 L 1.820312 -0.585938 C 2.089844 -0.585938 2.289062 -0.386719 2.289062 -0.117188 L 2.289062 0 L 2.519531 0 L 2.519531 -0.117188 C 2.519531 -0.324219 2.441406 -0.507812 2.308594 -0.628906 C 2.4375 -0.695312 2.519531 -0.828125 2.519531 -0.992188 C 2.519531 -1.226562 2.347656 -1.398438 2.113281 -1.398438 L 0.160156 -1.398438 Z M 0.390625 -0.816406 L 0.390625 -1.167969 L 2.113281 -1.167969 C 2.210938 -1.167969 2.289062 -1.09375 2.289062 -0.992188 C 2.289062 -0.890625 2.210938 -0.816406 2.113281 -0.816406 Z M 0.390625 -0.816406 "/></g></g></g><g fill="#f7931a" fill-opacity="1"><g transform="translate(26.467522, 35.383328)"><g><path d="M 2.289062 -0.992188 L 2.289062 -0.816406 L 0.390625 -0.816406 L 0.390625 -0.992188 C 0.390625 -1.09375 0.46875 -1.167969 0.566406 -1.167969 L 2.113281 -1.167969 C 2.210938 -1.167969 2.289062 -1.09375 2.289062 -0.992188 Z M 0.160156 0 L 0.390625 0 L 0.390625 -0.585938 L 2.289062 -0.585938 L 2.289062 0 L 2.519531 0 L 2.519531 -0.992188 C 2.519531 -1.226562 2.347656 -1.398438 2.113281 -1.398438 L 0.566406 -1.398438 C 0.332031 -1.398438 0.160156 -1.226562 0.160156 -0.992188 Z M 0.160156 0 "/></g></g></g><g fill="#f7931a" fill-opacity="1"><g transform="translate(29.147539, 35.383328)"><g><path d="M 1.304688 0 L 1.535156 0 L 1.535156 -1.167969 L 2.679688 -1.167969 L 2.679688 -1.398438 L 0.160156 -1.398438 L 0.160156 -1.167969 L 1.304688 -1.167969 Z M 1.304688 0 "/></g></g></g><g fill="#f7931a" fill-opacity="1"><g transform="translate(31.987556, 35.383328)"><g><path d="M 2.113281 -1.398438 L 0.566406 -1.398438 C 0.332031 -1.398438 0.160156 -1.226562 0.160156 -0.992188 L 0.160156 -0.40625 C 0.160156 -0.171875 0.332031 0 0.566406 0 L 2.113281 0 C 2.347656 0 2.519531 -0.171875 2.519531 -0.40625 L 2.519531 -0.992188 C 2.519531 -1.226562 2.347656 -1.398438 2.113281 -1.398438 Z M 0.390625 -0.40625 L 0.390625 -0.992188 C 0.390625 -1.09375 0.46875 -1.167969 0.566406 -1.167969 L 2.113281 -1.167969 C 2.210938 -1.167969 2.289062 -1.09375 2.289062 -0.992188 L 2.289062 -0.40625 C 2.289062 -0.308594 2.210938 -0.230469 2.113281 -0.230469 L 0.566406 -0.230469 C 0.46875 -0.230469 0.390625 -0.308594 0.390625 -0.40625 Z M 0.390625 -0.40625 "/></g></g></g></svg>