<svg xmlns="http://www.w3.org/2000/svg" xmlns:xlink="http://www.w3.org/1999/xlink" width="50" zoomAndPan="magnify" viewBox="0 0 37.5 37.499999" height="50" preserveAspectRatio="xMidYMid meet" version="1.0"><defs><clipPath id="edfc5d36a2"><path d="M 0 5.742188 L 37.007812 5.742188 L 37.007812 31.992188 L 0 31.992188 Z M 0 5.742188 " clip-rule="nonzero"/></clipPath></defs><g clip-path="url(#edfc5d36a2)"><path fill="#f21400" d="M 4.808594 5.742188 L 32.695312 5.742188 C 33.011719 5.742188 33.324219 5.773438 33.632812 5.835938 C 33.941406 5.898438 34.242188 5.992188 34.535156 6.113281 C 34.824219 6.234375 35.101562 6.382812 35.363281 6.5625 C 35.628906 6.738281 35.871094 6.941406 36.09375 7.164062 C 36.316406 7.390625 36.515625 7.636719 36.691406 7.898438 C 36.867188 8.164062 37.011719 8.445312 37.132812 8.738281 C 37.253906 9.03125 37.347656 9.335938 37.40625 9.648438 C 37.46875 9.960938 37.5 10.277344 37.5 10.59375 L 37.5 27.144531 C 37.5 27.460938 37.46875 27.777344 37.40625 28.089844 C 37.347656 28.402344 37.253906 28.703125 37.132812 29 C 37.011719 29.292969 36.867188 29.574219 36.691406 29.835938 C 36.515625 30.101562 36.316406 30.347656 36.09375 30.574219 C 35.871094 30.796875 35.628906 31 35.363281 31.175781 C 35.101562 31.351562 34.824219 31.503906 34.535156 31.625 C 34.242188 31.746094 33.941406 31.839844 33.632812 31.898438 C 33.324219 31.960938 33.011719 31.992188 32.695312 31.992188 L 4.808594 31.992188 C 4.492188 31.992188 4.179688 31.960938 3.871094 31.898438 C 3.5625 31.839844 3.261719 31.746094 2.96875 31.625 C 2.675781 31.503906 2.402344 31.351562 2.136719 31.175781 C 1.875 31 1.632812 30.796875 1.410156 30.574219 C 1.1875 30.347656 0.988281 30.101562 0.8125 29.835938 C 0.636719 29.574219 0.488281 29.292969 0.367188 29 C 0.246094 28.703125 0.15625 28.402344 0.09375 28.089844 C 0.0351562 27.777344 0.00390625 27.460938 0.00390625 27.144531 L 0.00390625 10.59375 C 0.00390625 10.277344 0.0351562 9.960938 0.09375 9.648438 C 0.15625 9.335938 0.246094 9.03125 0.367188 8.738281 C 0.488281 8.445312 0.636719 8.164062 0.8125 7.898438 C 0.988281 7.636719 1.1875 7.390625 1.410156 7.164062 C 1.632812 6.941406 1.875 6.738281 2.136719 6.5625 C 2.402344 6.382812 2.675781 6.234375 2.96875 6.113281 C 3.261719 5.992188 3.5625 5.898438 3.871094 5.835938 C 4.179688 5.773438 4.492188 5.742188 4.808594 5.742188 Z M 4.808594 5.742188 " fill-opacity="1" fill-rule="nonzero"/></g><path fill="#ffffff" d="M 23.78125 17.558594 L 15.222656 12.570312 C 14.222656 11.988281 12.972656 12.714844 12.972656 13.878906 L 12.972656 23.855469 C 12.972656 25.023438 14.222656 25.75 15.222656 25.167969 L 23.78125 20.179688 C 24.78125 19.597656 24.78125 18.140625 23.78125 17.558594 Z M 23.78125 17.558594 " fill-opacity="1" fill-rule="nonzero"/></svg>